<svg xmlns="http://www.w3.org/2000/svg" viewBox="0 0 30.18 30.18"><title>Asset 17</title><path d="M15.09,12.63a2.46,2.46,0,1,0,2.46,2.46A2.46,2.46,0,0,0,15.09,12.63Z" fill="#fff"/><path d="M20.85,10.73a2.42,2.42,0,0,0-.56-.85,2.36,2.36,0,0,0-.85-.55,4.06,4.06,0,0,0-1.37-.25c-.78,0-1-.05-3-.05s-2.21,0-3,.05a4.06,4.06,0,0,0-1.37.25,2.42,2.42,0,0,0-1.4,1.4,4.06,4.06,0,0,0-.25,1.37c0,.78-.05,1-.05,3s0,2.2.05,3a4.06,4.06,0,0,0,.25,1.37,2.36,2.36,0,0,0,.55.85,2.42,2.42,0,0,0,.85.56,4.06,4.06,0,0,0,1.37.25c.78,0,1,0,3,0s2.2,0,3,0a4.06,4.06,0,0,0,1.37-.25,2.53,2.53,0,0,0,1.41-1.41,4.06,4.06,0,0,0,.25-1.37c0-.78,0-1,0-3s0-2.21,0-3A4.06,4.06,0,0,0,20.85,10.73Zm-5.76,8.15a3.79,3.79,0,1,1,3.79-3.79A3.79,3.79,0,0,1,15.09,18.88ZM19,12a.89.89,0,0,1,0-1.77A.89.89,0,1,1,19,12Z" fill="#fff"/><path d="M15.09,0A15.09,15.09,0,1,0,30.18,15.09,15.1,15.1,0,0,0,15.09,0Zm7.34,18.13a5.64,5.64,0,0,1-.34,1.8,3.9,3.9,0,0,1-2.16,2.16,5.64,5.64,0,0,1-1.8.34c-.78,0-1,0-3,0s-2.26,0-3.05,0a5.63,5.63,0,0,1-1.79-.34,3.59,3.59,0,0,1-1.31-.86,3.65,3.65,0,0,1-.85-1.3,5.37,5.37,0,0,1-.34-1.8c0-.78,0-1,0-3s0-2.26,0-3.05a5.36,5.36,0,0,1,.34-1.79,3.75,3.75,0,0,1,2.16-2.16A5.36,5.36,0,0,1,12,7.75c.79,0,1,0,3.05,0s2.26,0,3,0a5.37,5.37,0,0,1,1.8.34,3.65,3.65,0,0,1,1.3.85,3.59,3.59,0,0,1,.86,1.31A5.63,5.63,0,0,1,22.43,12c0,.79,0,1,0,3.05S22.47,17.35,22.43,18.13Z" fill="#fff"/></svg>