<svg xmlns="http://www.w3.org/2000/svg" xmlns:xlink="http://www.w3.org/1999/xlink" viewBox="0 0 679.37 83.22"><defs><clipPath id="a" transform="translate(0 0)"><rect width="679.37" height="83.22" fill="none"/></clipPath></defs><title>Asset 13</title><g clip-path="url(#a)"><g clip-path="url(#a)"><path d="M89.29,1.82A4,4,0,0,0,85.91,0H4.23a4,4,0,0,0,0,8.08H79.72L49.53,77.43a4,4,0,0,0,7.41,3.23l32.67-75a4,4,0,0,0-.32-3.83" transform="translate(0 0)" fill="#fff"/><path d="M64.61,18.13a4,4,0,0,0-3.35-1.79H4.32a4,4,0,0,0,0,8.07H55.06L33.26,77.65a4.07,4.07,0,0,0,7.53,3.07L65,21.91a4,4,0,0,0-.38-3.78" transform="translate(0 0)" fill="#fff"/><path d="M41.73,33.76A4,4,0,0,0,38.38,32H4a4,4,0,1,0,0,8.08H32.27L16.93,77.51a4.05,4.05,0,0,0,7.5,3.07l17.68-43a4,4,0,0,0-.38-3.78" transform="translate(0 0)" fill="#fff"/><polygon points="125.74 27 119.79 45.77 113.88 27 105.99 27 103.92 55.12 110.19 55.12 111.57 36.91 116.99 54.23 122.62 54.23 128.04 36.99 129.42 55.12 135.73 55.12 133.59 27 125.74 27" fill="#fff"/><rect x="140.06" y="27" width="6.77" height="28.12" fill="#fff"/><polygon points="168.51 43.55 157.63 27 152 27 152 55.12 158.76 55.12 158.76 38.69 169.69 55.12 175.27 55.12 175.27 27 168.51 27 168.51 43.55" fill="#fff"/><rect x="180.45" y="27" width="6.75" height="28.12" fill="#fff"/><polygon points="208.9 43.55 198.02 27 192.39 27 192.39 55.12 199.14 55.12 199.14 38.69 210.07 55.12 215.66 55.12 215.66 27 208.9 27 208.9 43.55" fill="#fff"/><path d="M243.93,39.86h-9.65V45h7.81c-1.13,3.24-3.61,4.62-7,4.62-5.38,0-8.46-3.32-8.46-8.37s3-8.34,7.73-8.34a7.48,7.48,0,0,1,4.51,1.36h3.83L241.24,28a15.21,15.21,0,0,0-6.8-1.52c-8.42,0-14.73,6.15-14.73,14.61s6.23,14.57,14.73,14.57a13.55,13.55,0,0,0,11.73-5.95Z" transform="translate(0 0)" fill="#fff"/><polygon points="107.48 12.97 109.95 20.83 112.5 20.83 114.96 13.02 115.58 21.24 118.45 21.24 117.48 8.47 113.92 8.47 111.21 17 108.53 8.47 104.95 8.47 104.02 21.24 106.86 21.24 107.48 12.97" fill="#fff"/><path d="M126.56,21.48a6.62,6.62,0,1,0-6.75-6.61,6.57,6.57,0,0,0,6.75,6.61m0-10.34a3.45,3.45,0,0,1,3.57,3.71,3.6,3.6,0,1,1-7.19,0,3.47,3.47,0,0,1,3.62-3.71" transform="translate(0 0)" fill="#fff"/><polygon points="145.66 21.24 145.66 8.47 142.59 8.47 142.59 15.98 137.66 8.47 135.09 8.47 135.09 21.24 138.17 21.24 138.17 13.78 143.13 21.24 145.66 21.24" fill="#fff"/><path d="M160.7,14.32h-6.6v2.31h3.56a3.06,3.06,0,0,1-3.21,2.09,3.53,3.53,0,0,1-3.84-3.79c0-2.26,1.37-3.79,3.51-3.79a3.08,3.08,0,0,1,3.14,2.17l3-1.2a6.24,6.24,0,0,0-6-3.87,6.47,6.47,0,0,0-6.68,6.63,6.45,6.45,0,0,0,6.68,6.61c3.67,0,6.52-2.52,6.52-7.16" transform="translate(0 0)" fill="#fff"/><path d="M168.65,8.25a6.62,6.62,0,1,0,6.71,6.62,6.57,6.57,0,0,0-6.71-6.62m0,10.33A3.5,3.5,0,0,1,165,14.85a3.61,3.61,0,1,1,7.21,0,3.48,3.48,0,0,1-3.59,3.73" transform="translate(0 0)" fill="#fff"/><polygon points="185.94 18.5 180.26 18.5 180.26 8.47 177.2 8.47 177.2 21.24 185.94 21.24 185.94 18.5" fill="#fff"/><rect x="187.43" y="8.47" width="3.06" height="12.76" fill="#fff"/><path d="M195.59,18.79h4.51l.79,2.45h3L199.72,8.47H196l-4.21,12.77h3Zm2.25-7.06,1.45,4.55h-2.92Z" transform="translate(0 0)" fill="#fff"/><polygon points="212.68 15.98 207.74 8.47 205.19 8.47 205.19 21.24 208.25 21.24 208.25 13.78 213.21 21.24 215.75 21.24 215.75 8.47 212.68 8.47 212.68 15.98" fill="#fff"/><path d="M110.91,68.91,110,70.76l-5.22-9.84h-.83l5.66,10.64c-1,1.93-1.65,2.63-3.18,2.63a5.25,5.25,0,0,1-1.24-.17v.72a6.48,6.48,0,0,0,1.26.16c2.15,0,2.92-1.28,4.1-3.59l5.2-10.39h-.83Z" transform="translate(0 0)" fill="#fff"/><path d="M126.22,64.24,122,74.15l-4.67-9.91h-.81L121.63,75l0,.06c-.77,1.74-1.59,2.63-3.08,2.63a4.31,4.31,0,0,1-1.5-.28v.73a5.51,5.51,0,0,0,1.46.23c1.41,0,2.72-.57,3.8-3.1l4.72-11Z" transform="translate(0 0)" fill="#fff"/><path d="M129.58,69.84c0,2.31-.32,4.25-2.54,4.25h-.35v.67a2.42,2.42,0,0,0,.37,0c2.54,0,3.2-1.78,3.2-4.85v-5h6.13v9.85h.68V64.24h-7.49Z" transform="translate(0 0)" fill="#fff"/><path d="M148.91,74.15l-4.67-9.91h-.81L148.53,75l0,.06c-.77,1.74-1.59,2.63-3.09,2.63a4.25,4.25,0,0,1-1.49-.28v.73a5.51,5.51,0,0,0,1.46.23c1.41,0,2.72-.57,3.8-3.1l4.71-11h-.76Z" transform="translate(0 0)" fill="#fff"/><path d="M159.82,74.15l-4.67-9.91h-.81L159.45,75l0,.06c-.77,1.74-1.59,2.63-3.08,2.63a4.31,4.31,0,0,1-1.5-.28v.73a5.51,5.51,0,0,0,1.46.23c1.41,0,2.72-.57,3.8-3.1l4.72-11H164Z" transform="translate(0 0)" fill="#fff"/><path d="M171.52,64.1a5.18,5.18,0,0,0-4,1.69V64.24h-.68v14h.68v-5a5.16,5.16,0,0,0,4,1.73c3.18,0,5.28-2.1,5.28-5.44a5,5,0,0,0-5.26-5.36m-.06,10.11a4.73,4.73,0,0,1-4-2V66.73a4.68,4.68,0,0,1,4-1.94,4.37,4.37,0,0,1,4.59,4.67c0,2.93-1.82,4.75-4.59,4.75" transform="translate(0 0)" fill="#fff"/><polygon points="187.69 64.24 186.77 64.24 182.92 68.95 179.05 64.24 178.15 64.24 182.41 69.42 178.05 74.76 178.98 74.76 182.92 69.89 186.85 74.76 187.77 74.76 183.41 69.42 187.69 64.24" fill="#fff"/><path d="M198.29,65.77a5.19,5.19,0,0,0-4-1.67A5,5,0,0,0,189,69.44c0,3.32,2.1,5.46,5.28,5.46a5.21,5.21,0,0,0,4-1.71v1.57H199V64.24h-.69Zm0,6.5a4.73,4.73,0,0,1-3.93,1.94,4.71,4.71,0,0,1,0-9.42,4.69,4.69,0,0,1,3.95,1.94Z" transform="translate(0 0)" fill="#fff"/><path d="M207.12,62.55a2.53,2.53,0,0,0,2.77-2.49h-.65a2.15,2.15,0,0,1-4.26,0h-.63a2.52,2.52,0,0,0,2.77,2.49" transform="translate(0 0)" fill="#fff"/><polygon points="203.19 73.64 203.19 64.24 202.51 64.24 202.51 74.8 203.04 74.8 211.03 65.46 211.03 74.76 211.71 74.76 211.71 64.2 211.2 64.2 203.19 73.64" fill="#fff"/><polygon points="223.51 69.54 215.93 69.54 215.93 64.24 215.25 64.24 215.25 74.76 215.93 74.76 215.93 70.23 223.51 70.23 223.51 74.76 224.18 74.76 224.18 64.24 223.51 64.24 223.51 69.54" fill="#fff"/><path d="M240.21,64.24h-7.48v5.14c0,2.56-.41,4.05-1.12,4.71h-.82v3.56h.68V74.76H241v2.89h.66V74.09h-1.41Zm-.69,9.85h-7.06c.68-.84,1-2.33,1-4.61V64.91h6.08Z" transform="translate(0 0)" fill="#fff"/><path d="M248.79,64.1a5.4,5.4,0,1,0,5.53,5.38,5.29,5.29,0,0,0-5.53-5.38m0,10.11a4.71,4.71,0,1,1,4.81-4.73,4.61,4.61,0,0,1-4.81,4.73" transform="translate(0 0)" fill="#fff"/><path d="M258.3,69.84c0,2.31-.31,4.25-2.53,4.25h-.35v.67a2.42,2.42,0,0,0,.37,0c2.54,0,3.2-1.78,3.2-4.85v-5h6.13v9.85h.68V64.24h-7.5Z" transform="translate(0 0)" fill="#fff"/><path d="M274.16,64.1a5.4,5.4,0,1,0,5.54,5.38,5.28,5.28,0,0,0-5.54-5.38m0,10.11A4.71,4.71,0,1,1,279,69.48a4.61,4.61,0,0,1-4.81,4.73" transform="translate(0 0)" fill="#fff"/><path d="M287.35,64.1a5.4,5.4,0,1,0,5.54,5.38,5.28,5.28,0,0,0-5.54-5.38m0,10.11a4.71,4.71,0,1,1,4.81-4.73,4.61,4.61,0,0,1-4.81,4.73" transform="translate(0 0)" fill="#fff"/><polygon points="308.55 64.24 307.63 64.24 303.78 68.95 299.91 64.24 299.01 64.24 303.27 69.42 298.91 74.76 299.83 74.76 303.78 69.89 307.71 74.76 308.63 74.76 304.27 69.42 308.55 64.24" fill="#fff"/><path d="M315.42,64.1A5.4,5.4,0,1,0,321,69.48a5.29,5.29,0,0,0-5.53-5.38m0,10.11a4.71,4.71,0,1,1,4.81-4.73,4.61,4.61,0,0,1-4.81,4.73" transform="translate(0 0)" fill="#fff"/><polygon points="332.04 69.54 324.46 69.54 324.46 64.24 323.78 64.24 323.78 74.76 324.46 74.76 324.46 70.23 332.04 70.23 332.04 74.76 332.71 74.76 332.71 64.24 332.04 64.24 332.04 69.54" fill="#fff"/><path d="M341.09,64.1a5.4,5.4,0,1,0,5.53,5.38,5.29,5.29,0,0,0-5.53-5.38m0,10.11a4.71,4.71,0,1,1,4.81-4.73,4.61,4.61,0,0,1-4.81,4.73" transform="translate(0 0)" fill="#fff"/><polygon points="349.88 64.22 349.88 64.24 349.45 64.24 349.45 74.76 350.14 74.76 350.14 64.91 356.5 64.91 356.5 64.22 349.88 64.22" fill="#fff"/><polygon points="271.62 47.17 267.19 27.03 259.87 27.03 259.38 29.25 255.44 47.1 251.64 27.03 244.98 27.03 246.09 31.95 246.1 31.96 246.61 34.18 247.88 39.8 248.61 43.01 251.08 53.84 251.36 55.09 259.27 55.09 260.03 51.8 262.28 42 263.55 36.48 267.75 55.09 275.75 55.09 282.08 27.03 275.42 27.03 271.62 47.17" fill="#fff"/><polygon points="291.76 43.78 302.7 43.78 302.7 37.93 291.76 37.93 291.76 32.88 304.24 32.88 304.24 27.03 285.02 27.03 285.02 55.09 304.44 55.09 304.44 49.23 291.76 49.23 291.76 43.78" fill="#fff"/><polygon points="315.38 43.78 326.31 43.78 326.31 37.93 315.38 37.93 315.38 32.88 327.85 32.88 327.85 27.03 308.63 27.03 308.63 55.09 328.05 55.09 328.05 49.23 315.38 49.23 315.38 43.78" fill="#fff"/><polygon points="345.61 40.72 356.39 27.03 348.68 27.03 338.99 39.26 338.99 27.03 332.24 27.03 332.24 55.09 338.99 55.09 338.99 42.29 348.88 55.09 356.55 55.09 345.61 40.72" fill="#fff"/><path d="M308.87,16.54c-2.94,1.87-4.25,3.16-4.35,5.57V23h11.13V20.37h-8A13.39,13.39,0,0,1,311,18.11c2.88-1.72,4.62-2.9,4.62-5.66s-2.41-4.19-5.46-4.19c-3.51,0-5.61,1.88-5.61,5v.57h2.72v-.41c0-1.57,1.08-2.57,2.85-2.57,1.37,0,2.45.65,2.45,1.88,0,1.51-1.3,2.37-3.65,3.84" transform="translate(0 0)" fill="#fff"/><path d="M323.82,8.25c-4.15,0-6.7,2.81-6.7,7.53s2.55,7.51,6.7,7.51,6.66-2.79,6.66-7.51-2.54-7.53-6.66-7.53m0,12.37c-2.31,0-3.76-1.78-3.76-4.84s1.45-4.86,3.76-4.86,3.71,1.8,3.71,4.86-1.42,4.84-3.71,4.84" transform="translate(0 0)" fill="#fff"/><path d="M336.11,16.54c-2.94,1.87-4.25,3.16-4.35,5.57V23h11.13V20.37h-8a13.19,13.19,0,0,1,3.33-2.26c2.87-1.72,4.61-2.9,4.61-5.66s-2.41-4.19-5.45-4.19c-3.51,0-5.62,1.88-5.62,5v.57h2.72v-.41c0-1.57,1.08-2.57,2.86-2.57,1.37,0,2.45.65,2.45,1.88,0,1.51-1.31,2.37-3.66,3.84" transform="translate(0 0)" fill="#fff"/><path d="M351.39,23h2.84V20.46h2.27V18h-2.27V8.47h-2.06L343.65,19v1.51h7.74Zm-4.17-4.88,4.39-5.39v5.39Z" transform="translate(0 0)" fill="#fff"/><rect x="378.59" y="8.23" width="0.88" height="66.53" fill="#fff"/><path d="M545.16,24h-7.3v7.62h7.29a2.69,2.69,0,0,0,2-1V25.53c0-1.3-2-1.51-2-1.51" transform="translate(0 0)" fill="#fff"/><path d="M519.53,24H512.1v8.17h7.43s1.81-.31,1.81-1.51V25.53c0-1.27-1.81-1.51-1.81-1.51" transform="translate(0 0)" fill="#fff"/><path d="M571.94,23.82h-6.78a1.93,1.93,0,0,0-1.93,1.93v12a1.94,1.94,0,0,0,1.93,1.94h6.78a1.94,1.94,0,0,0,1.93-1.94v-12a1.93,1.93,0,0,0-1.93-1.93" transform="translate(0 0)" fill="#fff"/><path d="M405.46,71.06l-3.95-6.82h1.08l3.44,6Zm-3.23,3.85-.45-.82a5.88,5.88,0,0,0,1.41-.67,5.58,5.58,0,0,0,1.23-1.12,7.86,7.86,0,0,0,1.06-1.64l3.2-6.42h1l-3.28,6.39a14.8,14.8,0,0,1-.94,1.62,8.26,8.26,0,0,1-1,1.22,5.7,5.7,0,0,1-1.06.87,5.36,5.36,0,0,1-1.21.57" transform="translate(0 0)" fill="#fff"/><path d="M415.29,71.06l-4-6.82h1.08l3.44,6Zm-3.23,3.85-.45-.82a5.81,5.81,0,0,0,1.4-.67,5.62,5.62,0,0,0,1.24-1.12,8.29,8.29,0,0,0,1.06-1.64l3.2-6.42h1l-3.27,6.39a16.62,16.62,0,0,1-.94,1.62,9,9,0,0,1-1,1.22,6,6,0,0,1-1.06.87,5.36,5.36,0,0,1-1.21.57" transform="translate(0 0)" fill="#fff"/><path d="M420.35,74.91l-.46-.81a3.2,3.2,0,0,0,.87-.42,2,2,0,0,0,.62-.68,3.85,3.85,0,0,0,.41-1.14,12.92,12.92,0,0,0,.22-1.75c0-.71.06-1.56.06-2.56V64.24h6.78V74.76H428V65.05h-5v2.5c0,1.1,0,2-.1,2.82a12,12,0,0,1-.29,1.95,4.26,4.26,0,0,1-.51,1.28,2.69,2.69,0,0,1-.73.8,4.44,4.44,0,0,1-1,.51" transform="translate(0 0)" fill="#fff"/><path d="M439.81,71.06l-4-6.82h1.09l3.44,6Zm-3.23,3.85-.46-.82a5.7,5.7,0,0,0,1.41-.67,5.85,5.85,0,0,0,1.24-1.12,8.27,8.27,0,0,0,1.05-1.64l3.2-6.42h1l-3.28,6.39a16.66,16.66,0,0,1-.93,1.62,9,9,0,0,1-1,1.22,5.7,5.7,0,0,1-1.06.87,5.09,5.09,0,0,1-1.2.57" transform="translate(0 0)" fill="#fff"/><path d="M449.63,71.06l-3.95-6.82h1.08l3.44,6Zm-3.23,3.85-.45-.82a5.7,5.7,0,0,0,1.41-.67,5.58,5.58,0,0,0,1.23-1.12,7.86,7.86,0,0,0,1.06-1.64l3.2-6.42h1l-3.28,6.39a16.66,16.66,0,0,1-.93,1.62,9,9,0,0,1-1,1.22,5.7,5.7,0,0,1-1.06.87,5.16,5.16,0,0,1-1.21.57" transform="translate(0 0)" fill="#fff"/><path d="M455.85,74.76V64.24h3.39a4.57,4.57,0,0,1,1.88.36,2.88,2.88,0,0,1,1.26,1,2.73,2.73,0,0,1,.46,1.61,3,3,0,0,1-.42,1.63,2.62,2.62,0,0,1-1.23,1,5,5,0,0,1-2,.34h-2.51v4.54Zm.87-5.35h2.61a3.1,3.1,0,0,0,1.95-.54,1.92,1.92,0,0,0,.68-1.59,2,2,0,0,0-.69-1.62,2.82,2.82,0,0,0-1.92-.61h-2.63Z" transform="translate(0 0)" fill="#fff"/><polygon points="463.93 74.76 467.49 69.34 464.15 64.24 465.17 64.24 468.13 68.75 471.35 64.24 472.33 64.24 468.72 69.38 472.46 74.76 471.44 74.76 468.09 69.95 464.9 74.76 463.93 74.76" fill="#fff"/><path d="M474.06,74.76l4.24-10.52h.75l4.42,10.52h-1l-1.2-2.88h-5.14L475,74.76Zm2.41-3.7H481l-2.31-5.53Z" transform="translate(0 0)" fill="#fff"/><path d="M485.52,74.76V64.24h.87v9l6.27-9h.76V74.76h-.87v-9l-6.28,9Zm4-12a2.45,2.45,0,0,1-1.3-.34,2.34,2.34,0,0,1-.87-.92,2.63,2.63,0,0,1-.28-1.33h.77a1.82,1.82,0,0,0,.43,1.35,1.76,1.76,0,0,0,2.5,0,1.81,1.81,0,0,0,.41-1.35h.78a2.63,2.63,0,0,1-.29,1.33,2.34,2.34,0,0,1-.87.92,2.4,2.4,0,0,1-1.28.34" transform="translate(0 0)" fill="#fff"/><polygon points="496.49 74.76 496.49 64.24 497.36 64.24 497.36 68.7 503.4 68.7 503.4 64.24 504.27 64.24 504.27 74.76 503.4 74.76 503.4 69.52 497.36 69.52 497.36 74.76 496.49 74.76" fill="#fff"/><polygon points="514.46 74.76 514.46 70.07 510.72 64.24 511.77 64.24 514.92 69.22 518.05 64.24 519.07 64.24 515.33 70.07 515.33 74.76 514.46 74.76" fill="#fff"/><path d="M523.77,75a6,6,0,0,1-2-.32,4.34,4.34,0,0,1-1.54-.86l.52-.75a4,4,0,0,0,1.32.8,5,5,0,0,0,1.69.29,4.12,4.12,0,0,0,1.57-.28,2.4,2.4,0,0,0,1-.78,2,2,0,0,0,.37-1.15,2,2,0,0,0-.67-1.65,3.29,3.29,0,0,0-2.11-.56h-2v-.81h1.9a3.22,3.22,0,0,0,1.33-.26,1.9,1.9,0,0,0,1.2-1.83,1.85,1.85,0,0,0-.31-1.07,1.9,1.9,0,0,0-.89-.67,3.58,3.58,0,0,0-1.37-.23,4.52,4.52,0,0,0-1.49.24,3.8,3.8,0,0,0-1.23.72l-.48-.66a4.07,4.07,0,0,1,1.44-.85,5.31,5.31,0,0,1,1.8-.29,4.54,4.54,0,0,1,1.81.33,2.62,2.62,0,0,1,1.18,1,2.72,2.72,0,0,1,.41,1.5,2.18,2.18,0,0,1-.27,1,3.49,3.49,0,0,1-.69.87,2.34,2.34,0,0,1-.83.51,3.09,3.09,0,0,1,1.51,1A2.56,2.56,0,0,1,527.6,72a2.49,2.49,0,0,1-.49,1.46,3.35,3.35,0,0,1-1.34,1.1,4.5,4.5,0,0,1-2,.42" transform="translate(0 0)" fill="#fff"/><path d="M533.14,75a7.48,7.48,0,0,1-2.06-.29,5.2,5.2,0,0,1-1.8-1l.52-.73a4.56,4.56,0,0,0,1.55.86,5.92,5.92,0,0,0,1.79.26,4.68,4.68,0,0,0,2.3-.54A3.55,3.55,0,0,0,537,72a5.85,5.85,0,0,0,.53-2.62,5.05,5.05,0,0,0-.55-2.46,3.72,3.72,0,0,0-1.52-1.55,4.66,4.66,0,0,0-2.24-.53,5.57,5.57,0,0,0-1.67.24,4,4,0,0,0-1.37.74l-.48-.66a4.43,4.43,0,0,1,1.55-.84,6.65,6.65,0,0,1,2.06-.3,5.23,5.23,0,0,1,2.68.67,4.77,4.77,0,0,1,1.8,1.87,5.86,5.86,0,0,1,.64,2.81A6.82,6.82,0,0,1,538,71.7a5,5,0,0,1-1.08,1.77,4.67,4.67,0,0,1-1.66,1.13,5.59,5.59,0,0,1-2.12.39m-2.06-6.21h6.57v.81h-6.57Z" transform="translate(0 0)" fill="#fff"/><path d="M545.75,75a5.6,5.6,0,0,1-2.83-.69,4.7,4.7,0,0,1-1.87-1.93,6.5,6.5,0,0,1-.27-5.07,5.32,5.32,0,0,1,1.12-1.73,5.11,5.11,0,0,1,1.7-1.15,5.6,5.6,0,0,1,2.15-.4,6.52,6.52,0,0,1,2,.27,4.25,4.25,0,0,1,1.45.76l-.51.71a3.64,3.64,0,0,0-1.25-.69,5.16,5.16,0,0,0-1.56-.23,5,5,0,0,0-1.86.33,3.87,3.87,0,0,0-1.43.92,4.29,4.29,0,0,0-.93,1.47,5.54,5.54,0,0,0-.32,1.93,5.21,5.21,0,0,0,.57,2.52,3.88,3.88,0,0,0,1.62,1.59,5.24,5.24,0,0,0,2.45.55,5.36,5.36,0,0,0,1.67-.26,4.29,4.29,0,0,0,1.46-.86l.42.75a5,5,0,0,1-1.72.92,6.83,6.83,0,0,1-2,.29" transform="translate(0 0)" fill="#fff"/><polygon points="551.65 74.76 551.65 64.24 557.12 64.24 557.12 65.05 552.52 65.05 552.52 74.76 551.65 74.76" fill="#fff"/><path d="M562.49,75a7.48,7.48,0,0,1-2.06-.29,5.2,5.2,0,0,1-1.8-1l.52-.73a4.65,4.65,0,0,0,1.55.86,5.92,5.92,0,0,0,1.79.26,4.72,4.72,0,0,0,2.31-.54,3.58,3.58,0,0,0,1.5-1.6,5.72,5.72,0,0,0,.53-2.62,5.05,5.05,0,0,0-.55-2.46,3.72,3.72,0,0,0-1.52-1.55,4.63,4.63,0,0,0-2.24-.53,5.57,5.57,0,0,0-1.67.24,4,4,0,0,0-1.37.74l-.48-.66a4.43,4.43,0,0,1,1.55-.84,6.65,6.65,0,0,1,2.06-.3,5.2,5.2,0,0,1,2.68.67,4.63,4.63,0,0,1,1.8,1.87,5.86,5.86,0,0,1,.64,2.81,6.58,6.58,0,0,1-.38,2.33,5.09,5.09,0,0,1-1.07,1.77,4.71,4.71,0,0,1-1.67,1.13,5.56,5.56,0,0,1-2.12.39m-2.06-6.21H567v.81h-6.57Z" transform="translate(0 0)" fill="#fff"/><path d="M569.13,74.91l-.45-.81a3.52,3.52,0,0,0,.87-.42,2,2,0,0,0,.62-.68,3.86,3.86,0,0,0,.4-1.14,11.5,11.5,0,0,0,.22-1.75c.05-.71.07-1.56.07-2.56V64.24h6.78V74.76h-.88V65.05h-5v2.5q0,1.65-.09,2.82a11.85,11.85,0,0,1-.3,1.95,4.55,4.55,0,0,1-.5,1.28,2.72,2.72,0,0,1-.74.8,4.23,4.23,0,0,1-1,.51" transform="translate(0 0)" fill="#fff"/><path d="M583.67,75a7.48,7.48,0,0,1-2.06-.29,5.33,5.33,0,0,1-1.81-1l.53-.73a4.56,4.56,0,0,0,1.55.86,5.92,5.92,0,0,0,1.79.26,4.68,4.68,0,0,0,2.3-.54,3.6,3.6,0,0,0,1.51-1.6,5.85,5.85,0,0,0,.53-2.62,5.05,5.05,0,0,0-.55-2.46,3.72,3.72,0,0,0-1.52-1.55,4.66,4.66,0,0,0-2.24-.53,5.57,5.57,0,0,0-1.67.24,4,4,0,0,0-1.37.74l-.48-.66a4.43,4.43,0,0,1,1.55-.84,6.61,6.61,0,0,1,2.06-.3,5.23,5.23,0,0,1,2.68.67,4.67,4.67,0,0,1,1.79,1.87,5.75,5.75,0,0,1,.65,2.81,6.82,6.82,0,0,1-.38,2.33,5,5,0,0,1-1.08,1.77,4.67,4.67,0,0,1-1.66,1.13,5.59,5.59,0,0,1-2.12.39m-2.06-6.21h6.56v.81h-6.56Z" transform="translate(0 0)" fill="#fff"/><polygon points="591.37 74.76 591.37 64.24 592.24 64.24 592.24 68.7 598.28 68.7 598.28 64.24 599.16 64.24 599.16 74.76 598.28 74.76 598.28 69.52 592.24 69.52 592.24 74.76 591.37 74.76" fill="#fff"/><path d="M607.22,70.57a.85.85,0,0,1-.58-.22.74.74,0,0,1-.24-.56.7.7,0,0,1,.11-.41.75.75,0,0,1,.29-.27.88.88,0,0,1,.42-.11.81.81,0,0,1,.59.23.71.71,0,0,1,.24.56.69.69,0,0,1-.11.4.86.86,0,0,1-.29.28,1,1,0,0,1-.43.1" transform="translate(0 0)" fill="#fff"/><path d="M621.38,74.76V70.19a12.41,12.41,0,0,1-1.42.3,10.24,10.24,0,0,1-1.52.11,5,5,0,0,1-2.06-.38,2.62,2.62,0,0,1-1.26-1.2,4.36,4.36,0,0,1-.43-2.09V64.24h.88v2.54a3,3,0,0,0,.73,2.27,3.1,3.1,0,0,0,2.14.66,12.37,12.37,0,0,0,1.58-.09c.46-.06.91-.15,1.36-.25V64.24h.87V74.76Z" transform="translate(0 0)" fill="#fff"/><path d="M628.51,71.06l-4-6.82h1.08l3.44,6Zm-3.23,3.85-.45-.82a5.88,5.88,0,0,0,1.41-.67,5.58,5.58,0,0,0,1.23-1.12,7.86,7.86,0,0,0,1.06-1.64l3.2-6.42h1l-3.28,6.39a14.8,14.8,0,0,1-.94,1.62,8.26,8.26,0,0,1-1,1.22,6,6,0,0,1-1.06.87,5.36,5.36,0,0,1-1.21.57" transform="translate(0 0)" fill="#fff"/><path d="M638.34,71.06l-4-6.82h1.08l3.44,6Zm-3.23,3.85-.45-.82a5.81,5.81,0,0,0,1.4-.67,5.62,5.62,0,0,0,1.24-1.12,8.29,8.29,0,0,0,1.06-1.64l3.2-6.42h1l-3.27,6.39a16.62,16.62,0,0,1-.94,1.62,9,9,0,0,1-1,1.22,6,6,0,0,1-1.06.87,5.36,5.36,0,0,1-1.21.57" transform="translate(0 0)" fill="#fff"/><path d="M643.4,74.91l-.46-.81a3.2,3.2,0,0,0,.87-.42,2,2,0,0,0,.62-.68,3.85,3.85,0,0,0,.41-1.14,12.92,12.92,0,0,0,.22-1.75c0-.71.06-1.56.06-2.56V64.24h6.78V74.76H651V65.05h-5v2.5q0,1.65-.09,2.82a12,12,0,0,1-.29,1.95,4.26,4.26,0,0,1-.51,1.28,2.69,2.69,0,0,1-.73.8,4.44,4.44,0,0,1-1,.51" transform="translate(0 0)" fill="#fff"/><polygon points="654.96 74.76 654.96 64.24 660.42 64.24 660.42 65.05 655.83 65.05 655.83 74.76 654.96 74.76" fill="#fff"/><path d="M660.06,74.76l4.23-10.52h.76l4.41,10.52h-1l-1.2-2.88h-5.14L661,74.76Zm2.4-3.7H667l-2.32-5.53Z" transform="translate(0 0)" fill="#fff"/><polygon points="671.52 74.76 671.52 64.24 672.39 64.24 672.39 68.7 678.43 68.7 678.43 64.24 679.3 64.24 679.3 74.76 678.43 74.76 678.43 69.52 672.39 69.52 672.39 74.76 671.52 74.76" fill="#fff"/><path d="M605.22,28.73c-1.14.84-6.3,4.52-8.14,5.85-2.15,1.56-3.24,2.66-3.24,5.9v3.17h18.33V39.27h-9.84c-1.48,0-1.33-1.41-.66-1.93l5.19-4c2.84-2.23,5.22-3.56,5.22-8.14,0-3.49-2.1-6.09-7.23-6.09H594.64v4.16h9.05c3.55,0,3.79,3.85,1.53,5.5" transform="translate(0 0)" fill="#fff"/><path d="M648.51,28.73c-1.15.84-6.31,4.52-8.14,5.85-2.15,1.56-3.25,2.66-3.25,5.9v3.17h18.33V39.27h-9.84c-1.48,0-1.33-1.41-.65-1.93l5.18-4c2.85-2.23,5.22-3.56,5.22-8.14,0-3.49-2.1-6.09-7.23-6.09H637.92v4.16H647c3.55,0,3.79,3.85,1.54,5.5" transform="translate(0 0)" fill="#fff"/><path d="M629.5,44.25a5.81,5.81,0,0,0,5.81-5.81V24.88a5.81,5.81,0,0,0-5.81-5.81h-9.08a5.81,5.81,0,0,0-5.81,5.81V38.44a5.81,5.81,0,0,0,5.81,5.81ZM620.35,26a2.29,2.29,0,0,1,2.49-2.49h4.35A2.37,2.37,0,0,1,629.68,26V37.59c0,1.66-.71,2.49-2.49,2.49h-4.35a2.19,2.19,0,0,1-2.49-2.49Z" transform="translate(0 0)" fill="#fff"/><polygon points="665.29 19.07 657.38 33.6 657.38 38.63 670.85 38.63 670.85 43.66 675.55 43.66 675.55 38.63 677.8 38.63 677.8 33.92 675.55 33.92 675.55 28.65 670.85 28.65 670.85 33.92 662.57 33.92 670.64 19.07 665.29 19.07" fill="#fff"/><rect x="593.04" y="8.23" width="86.33" height="2.88" fill="#fff"/><rect x="593.04" y="52.21" width="86.33" height="2.88" fill="#fff"/><path d="M401.5,55.09H586.88V8.23H401.5Zm34.79-10.54H429.8V30.29l-5.15,9h-5l-5.1-8.93V44.55H408V19.05h6.86l7.25,13.34L429.38,19h6.91ZM452.66,24h-3.24V39.63h3.24v4.92h-13V39.63h3.25V24h-3.25V19.05h13Zm25.46,20.59h-7l-8.5-15.1v15.1h-6.54V19.05h6.74l8.75,15.23V19.05h6.54ZM502.57,24H489V39.33h13.58v5.22H482.38V19.05h20.19ZM501.08,34h-9.95V29h9.95Zm20.32,3.2h-9.31v7.39H505.6V19.05h16.13c6.56,0,6.3,6.48,6.3,6.48v5.15s.19,6.48-6.63,6.48M547,44.55l-4.22-7.81h-4.95v7.81h-6.63V19.05H547.5a6,6,0,0,1,4.07,1.3c2.26,1.7,2.18,5.18,2.18,5.18v5.15c0,5.35-4.18,5.66-4.18,5.66l4.67,8.21Zm33.32-5.87a6,6,0,0,1-6,6H562.65a6,6,0,0,1-6-6v-14a6,6,0,0,1,6-6h11.68a6,6,0,0,1,6,6Z" transform="translate(0 0)" fill="#fff"/></g></g></svg>