<svg xmlns="http://www.w3.org/2000/svg" viewBox="0 0 30.18 30.18"><title>Asset 15</title><path d="M18.9,18.94l-5.3-7.26c-.65-.9-1.3-1.79-2-2.68-.05-.08-.13-.19-.21-.2H10.11a.87.87,0,0,0,.08.14L11,10l5.82,7.86c.61.83,1.21,1.66,1.83,2.48a.33.33,0,0,0,.21.12c.38,0,.77,0,1.18,0l-.11-.16Z" fill="#fff"/><path d="M15.09,0A15.09,15.09,0,1,0,30.18,15.09,15.1,15.1,0,0,0,15.09,0Zm7.43,22H18.36a.53.53,0,0,1-.47-.24c-1.14-1.56-2.29-3.11-3.44-4.67l-.14-.19-.19.2-4,4.77a.3.3,0,0,1-.25.12H7.57l5.61-6.63q-2.94-4-5.91-8H12a.38.38,0,0,1,.34.17Q14,9.75,15.58,12l.06.07,1.08-1.28c.9-1.07,1.8-2.13,2.69-3.2a.51.51,0,0,1,.42-.19H22l-.39.47L17,13.32c-.22.26-.22.26,0,.54l3.56,4.87,2.33,3.18.06.09Z" fill="#fff"/></svg>