<svg xmlns="http://www.w3.org/2000/svg" viewBox="0 0 215.45 215.45"><title>Asset 14</title><polyline points="107.72 211.45 107.72 127.34 93.94 113.56 93.94 95.97" fill="none" stroke="#ed1651" stroke-linecap="round" stroke-linejoin="round" stroke-width="8"/><circle cx="93.94" cy="86.34" r="9.63" fill="none" stroke="#ed1651" stroke-linecap="round" stroke-linejoin="round" stroke-width="8"/><polyline points="90.47 211.45 90.47 165.67 76.69 151.89 76.69 143.01" fill="none" stroke="#ed1651" stroke-linecap="round" stroke-linejoin="round" stroke-width="8"/><circle cx="76.69" cy="133.38" r="9.63" fill="none" stroke="#ed1651" stroke-linecap="round" stroke-linejoin="round" stroke-width="8"/><polyline points="124.98 211.45 124.98 155.35 131.87 148.46 131.87 118.53" fill="none" stroke="#ed1651" stroke-linecap="round" stroke-linejoin="round" stroke-width="8"/><circle cx="131.87" cy="108.9" r="9.63" fill="none" stroke="#ed1651" stroke-linecap="round" stroke-linejoin="round" stroke-width="8"/><path d="M138.76,181.6a78.73,78.73,0,0,0,12.2-6.42l18.87,15.63a104.8,104.8,0,0,0,21-21L175.18,151A79.9,79.9,0,0,0,186,124.85l24.37-2.29a103.37,103.37,0,0,0,0-29.67L186,90.6a79.9,79.9,0,0,0-10.83-26.11l15.63-18.87a104.8,104.8,0,0,0-21-21L151,40.27a79.69,79.69,0,0,0-26.11-10.83L122.56,5.07a103.37,103.37,0,0,0-29.67,0L90.6,29.44A79.69,79.69,0,0,0,64.49,40.27L45.62,24.64a104.23,104.23,0,0,0-11.24,9.74h0a104.23,104.23,0,0,0-9.74,11.24L40.27,64.49A79.69,79.69,0,0,0,29.44,90.6L5.07,92.89a103.37,103.37,0,0,0,0,29.67l24.37,2.29A79.69,79.69,0,0,0,40.27,151L24.64,169.83a104.8,104.8,0,0,0,21,21l18.87-15.63a78.73,78.73,0,0,0,12.2,6.42" fill="none" stroke="#ed1651" stroke-linecap="round" stroke-linejoin="round" stroke-width="8"/><path d="M147.3,140.94a51.66,51.66,0,1,0-90-21.72" fill="none" stroke="#ed1651" stroke-linecap="round" stroke-linejoin="round" stroke-width="8"/></svg>