<svg xmlns="http://www.w3.org/2000/svg" viewBox="0 0 215.45 215.45"><title>Asset 1</title><circle cx="49.51" cy="91.44" r="16.72" fill="none" stroke="#ed1651" stroke-linecap="round" stroke-linejoin="round" stroke-width="8"/><polyline points="4 124.42 4 4 211.45 4 211.45 177.15 90.44 177.15" fill="none" stroke="#ed1651" stroke-linecap="round" stroke-linejoin="round" stroke-width="8"/><line x1="65.63" y1="45.34" x2="149.82" y2="45.34" fill="none" stroke="#ed1651" stroke-linecap="round" stroke-linejoin="round" stroke-width="8"/><line x1="88.49" y1="62.35" x2="126.96" y2="62.35" fill="none" stroke="#ed1651" stroke-linecap="round" stroke-linejoin="round" stroke-width="8"/><line x1="49.51" y1="122.8" x2="49.51" y2="180.29" fill="none" stroke="#ed1651" stroke-linecap="round" stroke-linejoin="round" stroke-width="8"/><path d="M76.23,211.45v-62.2c0-.64,9.79,4.82,14.15,6.88s13.51,1.88,18.22-4.08,17.56-22.07,21-27.06c6.28-9.21-4.19-18.43-13-10.53l-20,19.1s-6.89-4.11-14.14-8.39C77.05,122,69.32,121,66.23,121H30.83c-9.41,0-14.41,9.44-16.15,14.69C11.87,144.19,4,166.23,4,166.23v37.33c0,9.53,13,10.37,14,2.83,1.28-9.23,3.77-36.86,3.77-36.86l8.12-16.1" fill="none" stroke="#ed1651" stroke-linecap="round" stroke-linejoin="round" stroke-width="8"/><line x1="76.23" y1="197.39" x2="32.8" y2="197.39" fill="none" stroke="#ed1651" stroke-linecap="round" stroke-linejoin="round" stroke-width="8"/></svg>