<svg xmlns="http://www.w3.org/2000/svg" viewBox="0 0 215.45 215.45"><title>Asset 15</title><path d="M17.19,158.39a103.74,103.74,0,0,1,163.88-124" fill="none" stroke="#ed1651" stroke-linecap="round" stroke-linejoin="round" stroke-width="8"/><polyline points="151.99 35.92 184.22 37.53 182.61 5.3" fill="none" stroke="#ed1651" stroke-linecap="round" stroke-linejoin="round" stroke-width="8"/><path d="M198.26,57.05a103.74,103.74,0,0,1-163.88,124" fill="none" stroke="#ed1651" stroke-linecap="round" stroke-linejoin="round" stroke-width="8"/><polyline points="63.46 179.53 31.23 177.92 32.84 210.15" fill="none" stroke="#ed1651" stroke-linecap="round" stroke-linejoin="round" stroke-width="8"/><path d="M74.32,167.9c12.72,1.2,31.1,3,35,3.45,6,.77,10.93-.77,16.72-4s51.53-26.73,55.84-29.33c6.63-4-.68-13.64-6.69-10.16a51.74,51.74,0,0,0-5.08,3.12s-2.41-3.54-5.57-3.86-8.07,3.15-8.07,3.15-3.83-5.56-8-2.61S137.64,135,137.64,135" fill="none" stroke="#ed1651" stroke-linecap="round" stroke-linejoin="round" stroke-width="8"/><path d="M25.76,128.72l37.7,3.2s12.64-6.3,26.59-6.24,19.62,5.79,31.52,5.92,16.67-.07,17,7.33-5.66,7.85-10,8.3l-24.51,2.51" fill="none" stroke="#ed1651" stroke-linecap="round" stroke-linejoin="round" stroke-width="8"/><line x1="82.41" y1="50.88" x2="82.41" y2="103.79" fill="none" stroke="#ed1651" stroke-linecap="round" stroke-linejoin="round" stroke-width="8"/><line x1="98.74" y1="50.88" x2="66.08" y2="50.88" fill="none" stroke="#ed1651" stroke-linecap="round" stroke-linejoin="round" stroke-width="8"/><line x1="96.73" y1="70.42" x2="68.09" y2="87.32" fill="none" stroke="#ed1651" stroke-linecap="round" stroke-linejoin="round" stroke-width="8"/><path d="M127.08,77.88a11.86,11.86,0,1,1,11.85-12.42" fill="none" stroke="#ed1651" stroke-linecap="round" stroke-linejoin="round" stroke-width="8"/><path d="M127.81,77.9a13.06,13.06,0,1,1-13.79,13" fill="none" stroke="#ed1651" stroke-linecap="round" stroke-linejoin="round" stroke-width="8"/><line x1="127.07" y1="44.15" x2="127.07" y2="54.16" fill="none" stroke="#ed1651" stroke-linecap="round" stroke-linejoin="round" stroke-width="8"/><line x1="127.07" y1="104" x2="127.07" y2="113.59" fill="none" stroke="#ed1651" stroke-linecap="round" stroke-linejoin="round" stroke-width="8"/></svg>