<svg xmlns="http://www.w3.org/2000/svg" viewBox="0 0 215.45 194.67"><title>Asset 16</title><path d="M67.53,190.67l-13.88-42.8H19a15,15,0,0,1-15-15v-49a15,15,0,0,1,15-15H30.22a15,15,0,0,1,10.59,4.39L51.14,83.61h35v3.91a12.84,12.84,0,0,1-12.84,12.84H36.1l-10-10" fill="none" stroke="#ed1651" stroke-linecap="round" stroke-linejoin="round" stroke-width="8"/><path d="M36.1,100.36v22h22a15,15,0,0,1,14.34,10.67l17.34,57.6" fill="none" stroke="#ed1651" stroke-linecap="round" stroke-linejoin="round" stroke-width="8"/><circle cx="36.1" cy="37.92" r="16.96" fill="none" stroke="#ed1651" stroke-linecap="round" stroke-linejoin="round" stroke-width="8"/><path d="M147.92,190.67l13.88-42.8h34.67a15,15,0,0,0,15-15v-49a15,15,0,0,0-15-15H185.23a15,15,0,0,0-10.59,4.39L164.31,83.61h-35v3.91a12.84,12.84,0,0,0,12.84,12.84h37.24l10-10" fill="none" stroke="#ed1651" stroke-linecap="round" stroke-linejoin="round" stroke-width="8"/><path d="M179.35,100.36v22h-22A15,15,0,0,0,143,133.07l-17.34,57.6" fill="none" stroke="#ed1651" stroke-linecap="round" stroke-linejoin="round" stroke-width="8"/><circle cx="179.35" cy="37.92" r="16.96" fill="none" stroke="#ed1651" stroke-linecap="round" stroke-linejoin="round" stroke-width="8"/><circle cx="107.72" cy="20.96" r="16.96" fill="none" stroke="#ed1651" stroke-linecap="round" stroke-linejoin="round" stroke-width="8"/><path d="M72.34,83.61V68.83A17.12,17.12,0,0,1,89.46,51.71H126a17.12,17.12,0,0,1,17.12,17.12V82.24" fill="none" stroke="#ed1651" stroke-linecap="round" stroke-linejoin="round" stroke-width="8"/><line x1="70.34" y1="100.36" x2="145.11" y2="100.36" fill="none" stroke="#ed1651" stroke-linecap="round" stroke-linejoin="round" stroke-width="8"/><line x1="107.72" y1="100.36" x2="107.72" y2="190.67" fill="none" stroke="#ed1651" stroke-linecap="round" stroke-linejoin="round" stroke-width="8"/></svg>