<svg xmlns="http://www.w3.org/2000/svg" viewBox="0 0 215.45 117.72"><title>Asset 17</title><polyline points="211.45 15.22 174.98 15.22 174.98 93.8 211.45 93.8" fill="none" stroke="#ed1651" stroke-linecap="round" stroke-linejoin="round" stroke-width="8"/><polyline points="4 15.22 40.47 15.22 40.47 93.8 4 93.8" fill="none" stroke="#ed1651" stroke-linecap="round" stroke-linejoin="round" stroke-width="8"/><path d="M175,23s-8.88.18-24.82-5.77S126.64,5,117.76,4.42,103.11,3,95.1,8.56,66.15,31.48,66.15,31.48s.95,7.75,10.34,8.18S90.1,37.94,103.2,27.43c17.92,18.78,43.61,48.64,49.8,55.39,7.88,8.58-4.3,17.68-11.46,10C134.18,84.94,123.62,74,123.62,74" fill="none" stroke="#ed1651" stroke-linecap="round" stroke-linejoin="round" stroke-width="8"/><path d="M139,90.09c8.69,9.46-4.41,19.55-12.31,11.09-8.11-8.7-19.76-20.8-19.76-20.8" fill="none" stroke="#ed1651" stroke-linecap="round" stroke-linejoin="round" stroke-width="8"/><path d="M120.91,95.05c8.18,8.91-4.23,18.46-11.66,10.49-7.65-8.19-21-21.9-21-21.9" fill="none" stroke="#ed1651" stroke-linecap="round" stroke-linejoin="round" stroke-width="8"/><path d="M104.32,100.33c8.38,8.73-2.22,17.9-10.6,10.93C85.11,104.09,53.57,79.1,53.57,79.1H40.47" fill="none" stroke="#ed1651" stroke-linecap="round" stroke-linejoin="round" stroke-width="8"/><line x1="155.28" y1="86.67" x2="174.98" y2="81.8" fill="none" stroke="#ed1651" stroke-linecap="round" stroke-linejoin="round" stroke-width="8"/><line x1="40.47" y1="23.64" x2="75.47" y2="23.64" fill="none" stroke="#ed1651" stroke-linecap="round" stroke-linejoin="round" stroke-width="8"/><line x1="16.35" y1="71.95" x2="16.35" y2="79.1" fill="none" stroke="#ed1651" stroke-linecap="round" stroke-linejoin="round" stroke-width="8"/><line x1="199.1" y1="71.95" x2="199.1" y2="79.1" fill="none" stroke="#ed1651" stroke-linecap="round" stroke-linejoin="round" stroke-width="8"/></svg>