<svg xmlns="http://www.w3.org/2000/svg" viewBox="0 0 215.45 215.45"><title>Asset 18</title><path d="M53,134.63c-2.21,1.2-3.75-.07-5.53-1.39-2.4-1.8-4.64-4.08-7.83-4.51-1.61-.22-3.27-.13-4.9-.23-.54,0-1.07-.24-1.61-.32a15.24,15.24,0,0,0-3-.34c-2.57.19-5.74-1.41-6.75-3.46a3,3,0,0,1,.65-3.92c.92-.89,1.39-1.78.76-3.08a2.13,2.13,0,0,1,.09-1.58,4.09,4.09,0,0,0-.21-4.21c-1.39-2-2.83-3.9-3.43-6.44-.39-1.62-1.92-3-3-4.52l-1,1.27a5.28,5.28,0,0,1-1-.91c-.75-1.15-1.55-1.88-2.93-.84a1,1,0,0,1-.93,0c-1.07-1.2-3-1.27-3.63-3.17-.23-.72-1.31-1.29-2.12-1.69-1-.49-1.63-.94-.89-2.16C4.35,92.62,3.52,92,4.31,90.5c.25-.49-.09-1.29-.16-2,1.26-.46,2.59-.75,2.6-2.61,0-.23,1.76-.65,2.7-.65,1.44,0,2.91.42,3.92-1.09.1-.16.46-.14.7-.2,2-.51,2.36-1,2-2.72l8.18-5.08c.31-.19.67-.56.95-.51,1.95.36,2.77-1.32,4.07-2.14a3.13,3.13,0,0,1,1.79-.71c1.38.22,2.19-.1,2.27-1.76l2,1.73,2.16-.73.44,1.85c.67,0,1.52-.06,2.36,0,1.81.16,3.62.34,5.41.62.25,0,.45.66.6,1,.4.94.73,1.91,1.14,2.84s1.2,1.26,2.35,1.26,2.24.68,3.38.9c.67.14,1.65.24,2.05-.12,1.28-1.16,2.43-.24,3.62,0A22,22,0,0,1,61.5,81a10,10,0,0,1,2.7.93,1.94,1.94,0,0,0,3.07-.67,1.91,1.91,0,0,1,1.07-.86c2.11-.36,4.17-3.33,3.55-5.28-.09-.27-.4-.48-.63-.7s-.74-.44-.86-.76c-.87-2.35-1.8-4.73-.59-7.24.15-.32.52-.53.81-.77s.75-.38.76-.58c.08-2.05,1.69-2.74,3-3.81.76-.61,1-1.9,1.61-3.26,1.48,2.14,4.41,1.7,5.94,3.82a1.46,1.46,0,0,0,1.19.43A9.7,9.7,0,0,1,89.81,64c1.66,1,3.52,1.13,5.31,1.6,1,.28,1.7.6,1.64,1.94a11.41,11.41,0,0,0,3.22,8c.8.92,2.43,1.11,3.76,1.48a4,4,0,0,0,3.7,1.33,7.12,7.12,0,0,1,1.22,0c.51,0,1.2,0,1.5-.31,1.52-1.58,3.55-1.73,5.51-2a22.67,22.67,0,0,1,4.19-.3,14.27,14.27,0,0,1,2.23.75c.85.18,1.75.11,2.59.31,1.08.25,2.69.37,3.06,1.08,1.12,2.14,2.94,2.42,4.93,2.66.43,0,.86.15,1.42.24-.05,1.81.3,3.4,2.34,3.92.66,2.56,2.76,1.64,4.44,1.91,2.12.34,4.2,1,6.32,1.41a9.7,9.7,0,0,0,2.33-.12c.26,0,.57-.16.77-.06,1.72.83,3.18.1,4.73-.6a24.79,24.79,0,0,1,3.44-1,16.31,16.31,0,0,1,4-1.1c2.83,0,4.43-1.38,6.12-3.56,1.36-1.76,3.79-2.72,5.82-3.92,1.37-.81,4.62.13,6,1.58,2.17,2.26,2.91,2.34,5.69.76,1.52-.86,2.64.33,3.8.94s.41,1.44.1,2.17a47.4,47.4,0,0,0-2.64,6.1c-.72,2.53-2.58,4.67-2.47,7.5,0,.5-.66,1.09-1.11,1.54a1.85,1.85,0,0,0-.12,2.9c.77.81,1.4,2.11,2.9.64,1.33-1.32,5.48-1.16,6.92,0,1.78,1.4,1.73,1.37,2.8-.61A2.94,2.94,0,0,1,198,99.81c2.37-.52,4.62-.75,6.33,1.79a17.7,17.7,0,0,0,4.08,3.82c1.77,1.34,2.32,3.29,2.9,5.21.42,1.37-.24,2.28-1.63,2.17a26.41,26.41,0,0,1-4.05-1,4.46,4.46,0,0,0-1.21-.08c-.53,0-1.11.29-1.58.15-1.58-.44-2.79.23-4,1-1.41,1-1.43.94-3,0a3.77,3.77,0,0,0-.51.94,1.5,1.5,0,0,1-2,1.23c-2.88-.51-4.84,1.32-5.66,5.1-.06.31-.07.78-.27.9-2.79,1.7-5.23,4.45-9.07,3-.95-.35-1.55-.06-2,1-1.14,2.38-3.44,3.64-5.55,5a1.12,1.12,0,0,1-.79,0c-2.21-.65-4.6-.48-6.53-2.31s-4.63-.55-5.37,1.81c-.19.64-.46,1.25-.7,1.87-.88,2.32-.58,3.55,1.23,5.31a7.41,7.41,0,0,1,1.46,1.77,1.39,1.39,0,0,1-.42,1.28c-3.34,1.89-6.94,3.37-8.92,7a4.51,4.51,0,0,1-1.93,1.46,16.75,16.75,0,0,1-4.34,2,41.42,41.42,0,0,1-6,.35c-1.45.07-2.89.18-4.33.29a2.85,2.85,0,0,1-.49.06c-4.7-.55-8.47,2.18-12.6,3.62-1.75.62-3.29,1.85-5.05,2.46-1.06.36-2.35.06-3.63.06l-.14-1.68a2.25,2.25,0,0,0-.92-.06c-3.37,1.34-6.25,0-9.16-1.52a9.73,9.73,0,0,0-3.41-1,4.94,4.94,0,0,1-3.2-1.76,4.49,4.49,0,0,0-1.89-1,33.19,33.19,0,0,0-4.18-1.05,22.52,22.52,0,0,0-8.83.57,13,13,0,0,1-4.25-.15c-4.18-.46-8.35-1.38-12.52-1.37-2.66,0-4.28-.23-6-2.63-1.54-2.2-1.81-4.82-3.32-6.91-.32-.45-.87-.8-1-1.29A20.41,20.41,0,0,1,53,134.63Z" fill="none" stroke="#ed1651" stroke-linecap="round" stroke-linejoin="round" stroke-width="8"/><path d="M13.68,63.91a103.76,103.76,0,0,1,194.79,19" fill="none" stroke="#ed1651" stroke-linecap="round" stroke-linejoin="round" stroke-width="8"/><path d="M208.58,132.05A103.74,103.74,0,0,1,4.22,114.52" fill="none" stroke="#ed1651" stroke-linecap="round" stroke-linejoin="round" stroke-width="8"/></svg>