<?xml version="1.0" encoding="utf-8"?>
<!-- Generator: Adobe Illustrator 26.1.0, SVG Export Plug-In . SVG Version: 6.00 Build 0)  -->
<svg version="1.1" id="Layer_1" xmlns="http://www.w3.org/2000/svg" xmlns:xlink="http://www.w3.org/1999/xlink" x="0px" y="0px"
	 viewBox="0 0 198.4 283.5" style="enable-background:new 0 0 198.4 283.5;" xml:space="preserve">
<style type="text/css">
	.st0{clip-path:url(#SVGID_00000166663174951663577330000017650319847566118327_);fill:#FFFFFF;}
	.st1{fill:none;stroke:#184891;stroke-width:0.6;}
	.st2{fill:#FFFFFF;}
	.st3{clip-path:url(#SVGID_00000059301817580634866110000015149240167302783879_);fill:#184891;}
	.st4{fill:#ED1260;}
	.st5{clip-path:url(#SVGID_00000067219025071234088110000014928299325993515169_);fill:#FFFFFF;}
	.st6{clip-path:url(#SVGID_00000093137291540222202710000011901936574804170880_);fill:#FFFFFF;}
</style>
<g>
	<defs>
		<rect id="SVGID_1_" x="10.8" y="12.5" width="177.4" height="258.7"/>
	</defs>
	<clipPath id="SVGID_00000088105948709872174510000001219980294820226743_">
		<use xlink:href="#SVGID_1_"  style="overflow:visible;"/>
	</clipPath>
	<path style="clip-path:url(#SVGID_00000088105948709872174510000001219980294820226743_);fill:#FFFFFF;" d="M174.6,215.3v-6.6h-0.8
		l5.4,6.6h1.7v-9.1h-2.1v6.6h0.8l-5.4-6.6h-1.7v9.1H174.6z M156.6,213.5c-0.3-0.1-0.6-0.3-0.9-0.6c-0.3-0.3-0.5-0.6-0.6-0.9
		c-0.1-0.4-0.2-0.8-0.2-1.2c0-0.4,0.1-0.8,0.2-1.2c0.1-0.4,0.3-0.7,0.6-0.9c0.3-0.3,0.6-0.5,0.9-0.6c0.3-0.1,0.7-0.2,1.1-0.2
		c0.4,0,0.8,0.1,1.1,0.2c0.3,0.1,0.6,0.3,0.9,0.6c0.3,0.3,0.5,0.6,0.6,0.9c0.1,0.4,0.2,0.8,0.2,1.2c0,0.4-0.1,0.8-0.2,1.2
		c-0.1,0.4-0.3,0.7-0.6,0.9c-0.3,0.3-0.6,0.5-0.9,0.6c-0.3,0.1-0.7,0.2-1.1,0.2C157.4,213.7,157,213.6,156.6,213.5 M159.8,215.1
		c0.6-0.2,1.1-0.6,1.6-1c0.4-0.4,0.8-0.9,1-1.5c0.3-0.6,0.4-1.2,0.4-1.9c0-0.7-0.1-1.3-0.4-1.9s-0.6-1.1-1-1.5c-0.4-0.4-1-0.8-1.6-1
		c-0.6-0.2-1.3-0.4-2-0.4c-0.7,0-1.4,0.1-2,0.4c-0.6,0.2-1.1,0.6-1.6,1c-0.5,0.4-0.8,0.9-1,1.5c-0.2,0.6-0.4,1.2-0.4,1.9
		c0,0.7,0.1,1.3,0.4,1.9c0.2,0.6,0.6,1.1,1,1.5c0.4,0.4,1,0.8,1.6,1c0.6,0.2,1.3,0.4,2,0.4C158.5,215.5,159.2,215.4,159.8,215.1
		 M143,206.2h-2.1v9.1h2.1V206.2z M128.6,215.3v-7.4h2.9v-1.7h-7.9v1.7h2.9v7.4H128.6z M107.9,215.3v-6.6h-0.8l5.4,6.6h1.7v-9.1
		h-2.1v6.6h0.8l-5.4-6.6h-1.7v9.1H107.9z M91,207.9h4.8v-1.7h-6.9v9.1H96v-1.7h-5V207.9z M90.8,211.5h4.4v-1.6h-4.4V211.5z
		 M76,215.3l3.9-9.1h-2.1l-3.5,8.1h1.3l-3.4-8.1H70l3.9,9.1H76z M54.6,215.3v-6.6h-0.8l5.4,6.6h1.7v-9.1h-2.1v6.6h0.8l-5.4-6.6h-1.7
		v9.1H54.6z M36.5,213.5c-0.3-0.1-0.7-0.3-0.9-0.6c-0.3-0.3-0.5-0.6-0.6-0.9c-0.1-0.4-0.2-0.8-0.2-1.2c0-0.4,0.1-0.8,0.2-1.2
		c0.1-0.4,0.3-0.7,0.6-0.9c0.3-0.3,0.6-0.5,0.9-0.6c0.3-0.1,0.7-0.2,1.1-0.2c0.4,0,0.8,0.1,1.1,0.2c0.3,0.1,0.6,0.3,0.9,0.6
		c0.3,0.3,0.5,0.6,0.6,0.9c0.1,0.4,0.2,0.8,0.2,1.2c0,0.4-0.1,0.8-0.2,1.2s-0.3,0.7-0.6,0.9c-0.3,0.3-0.6,0.5-0.9,0.6
		c-0.3,0.1-0.7,0.2-1.1,0.2C37.3,213.7,36.9,213.6,36.5,213.5 M39.7,215.1c0.6-0.2,1.1-0.6,1.6-1c0.4-0.4,0.8-0.9,1-1.5
		c0.3-0.6,0.4-1.2,0.4-1.9c0-0.7-0.1-1.3-0.4-1.9c-0.3-0.6-0.6-1.1-1-1.5c-0.4-0.4-1-0.8-1.6-1c-0.6-0.2-1.3-0.4-2-0.4
		c-0.7,0-1.4,0.1-2,0.4c-0.6,0.2-1.1,0.6-1.6,1c-0.5,0.4-0.8,0.9-1,1.5c-0.2,0.6-0.4,1.2-0.4,1.9c0,0.7,0.1,1.3,0.4,1.9
		c0.2,0.6,0.6,1.1,1,1.5c0.4,0.4,1,0.8,1.6,1c0.6,0.2,1.3,0.4,2,0.4C38.4,215.5,39.1,215.4,39.7,215.1 M22.2,215.1
		c0.6-0.3,1.2-0.7,1.6-1.2l-1.4-1.3c-0.3,0.4-0.7,0.6-1,0.8c-0.4,0.2-0.8,0.3-1.3,0.3c-0.4,0-0.8-0.1-1.2-0.2
		c-0.4-0.1-0.7-0.3-0.9-0.6c-0.3-0.3-0.5-0.6-0.6-0.9s-0.2-0.8-0.2-1.2c0-0.4,0.1-0.8,0.2-1.2c0.1-0.4,0.3-0.7,0.6-0.9
		c0.3-0.3,0.6-0.5,0.9-0.6c0.4-0.1,0.7-0.2,1.2-0.2c0.5,0,0.9,0.1,1.3,0.3c0.4,0.2,0.7,0.4,1,0.8l1.4-1.3c-0.4-0.5-1-0.9-1.6-1.2
		c-0.6-0.3-1.4-0.4-2.1-0.4c-0.7,0-1.4,0.1-2,0.3c-0.6,0.2-1.1,0.6-1.6,1c-0.4,0.4-0.8,0.9-1,1.5c-0.2,0.6-0.4,1.2-0.4,1.9
		s0.1,1.3,0.4,1.9c0.2,0.6,0.6,1.1,1,1.5c0.4,0.4,1,0.8,1.6,1s1.3,0.3,2,0.3C20.9,215.5,21.6,215.4,22.2,215.1"/>
	<path style="clip-path:url(#SVGID_00000088105948709872174510000001219980294820226743_);fill:#FFFFFF;" d="M180.4,201.1
		c0.7-0.4,1.3-0.9,1.7-1.5c0.5-0.7,0.8-1.4,1-2.3l-1.6-0.5c-0.1,0.7-0.4,1.3-0.7,1.8c-0.3,0.5-0.7,0.9-1.1,1.1
		c-0.4,0.2-0.9,0.4-1.5,0.4c-0.3,0-0.6,0-0.9-0.1c-0.2-0.1-0.4-0.2-0.6-0.4c-0.1-0.2-0.2-0.4-0.2-0.6c0-0.2,0.1-0.4,0.2-0.6
		c0.1-0.2,0.3-0.4,0.6-0.6s0.6-0.4,1-0.6c0.7-0.3,1.2-0.6,1.6-0.8c0.4-0.3,0.7-0.6,0.9-0.9c0.2-0.3,0.3-0.7,0.3-1
		c0-0.4-0.1-0.8-0.3-1.1s-0.5-0.6-0.9-0.7c-0.4-0.2-0.8-0.3-1.4-0.3c-0.6,0-1.1,0.1-1.5,0.3c-0.4,0.2-0.8,0.4-1,0.8
		c-0.2,0.3-0.4,0.7-0.4,1.2c0,0.3,0,0.5,0.1,0.7c0.1,0.2,0.2,0.5,0.4,0.7c0.2,0.2,0.4,0.5,0.7,0.8l5.3,4.9l1.1-1.3l-4.8-4.5
		c-0.3-0.3-0.5-0.5-0.6-0.6c-0.1-0.2-0.2-0.3-0.3-0.4c-0.1-0.1-0.1-0.3-0.1-0.4c0-0.2,0.1-0.4,0.3-0.6c0.2-0.2,0.4-0.2,0.7-0.2
		c0.3,0,0.5,0.1,0.7,0.2c0.2,0.1,0.2,0.3,0.2,0.5c0,0.2-0.1,0.3-0.2,0.5c-0.1,0.2-0.3,0.3-0.6,0.5s-0.7,0.4-1.1,0.6
		c-0.7,0.3-1.2,0.6-1.7,0.9c-0.4,0.3-0.8,0.7-1,1c-0.2,0.4-0.3,0.8-0.3,1.2c0,0.5,0.2,0.9,0.5,1.3c0.3,0.4,0.7,0.7,1.2,0.9
		c0.5,0.2,1.1,0.3,1.8,0.3C179,201.6,179.7,201.5,180.4,201.1 M159,201.5v-6.6h-0.8l5.4,6.6h1.7v-9.1h-2.1v6.6h0.8l-5.4-6.6h-1.7
		v9.1H159z M141.4,199.6c-0.3-0.1-0.7-0.3-0.9-0.6s-0.5-0.6-0.6-0.9c-0.1-0.4-0.2-0.8-0.2-1.2c0-0.4,0.1-0.8,0.2-1.2
		c0.1-0.4,0.3-0.7,0.6-0.9c0.3-0.3,0.6-0.5,0.9-0.6c0.3-0.1,0.7-0.2,1.1-0.2c0.4,0,0.8,0.1,1.1,0.2c0.3,0.1,0.6,0.3,0.9,0.6
		c0.3,0.3,0.5,0.6,0.6,0.9c0.1,0.4,0.2,0.8,0.2,1.2c0,0.4-0.1,0.8-0.2,1.2s-0.3,0.7-0.6,0.9c-0.3,0.3-0.6,0.5-0.9,0.6
		c-0.3,0.1-0.7,0.2-1.1,0.2C142.1,199.8,141.7,199.8,141.4,199.6 M144.5,201.3c0.6-0.2,1.1-0.6,1.6-1c0.4-0.4,0.8-0.9,1-1.5
		s0.4-1.2,0.4-1.9c0-0.7-0.1-1.3-0.4-1.9c-0.3-0.6-0.6-1.1-1-1.5c-0.4-0.4-1-0.8-1.6-1c-0.6-0.2-1.3-0.4-2-0.4c-0.7,0-1.4,0.1-2,0.4
		c-0.6,0.2-1.1,0.6-1.6,1c-0.5,0.4-0.8,0.9-1,1.5c-0.2,0.6-0.4,1.2-0.4,1.9c0,0.7,0.1,1.3,0.4,1.9c0.2,0.6,0.6,1.1,1,1.5
		c0.4,0.4,1,0.8,1.6,1c0.6,0.2,1.3,0.4,2,0.4C143.2,201.6,143.9,201.5,144.5,201.3 M128.1,192.4H126v9.1h2.1V192.4z M114.1,201.5
		v-7.4h2.9v-1.7h-8v1.7h2.9v7.4H114.1z M100.1,192.4H98v9.1h2.1V192.4z M82.3,194h2.1c0.5,0,0.9,0.1,1.2,0.3
		c0.3,0.2,0.4,0.4,0.4,0.8c0,0.4-0.1,0.6-0.4,0.8c-0.3,0.2-0.7,0.3-1.2,0.3h-2.3v1.5h2.6c0.5,0,1,0.1,1.2,0.3
		c0.3,0.2,0.4,0.5,0.4,0.9c0,0.4-0.1,0.7-0.4,0.9c-0.3,0.2-0.7,0.3-1.2,0.3h-2.5V194z M84.9,201.5c1.2,0,2.1-0.2,2.7-0.7
		c0.6-0.4,0.9-1,0.9-1.8c0-0.5-0.1-1-0.4-1.3c-0.2-0.4-0.6-0.6-1-0.8c-0.4-0.2-1-0.3-1.5-0.3l-0.2,0.5c0.5,0,1-0.1,1.4-0.3
		c0.4-0.2,0.7-0.5,1-0.8c0.2-0.4,0.4-0.8,0.4-1.2c0-0.7-0.3-1.3-0.9-1.7c-0.6-0.4-1.4-0.7-2.6-0.7h-4.5v9.1H84.9z M70.2,192.4h-2.1
		v9.1h2.1V192.4z M56.2,196h-4.5v1.8h4.5V196z M51.9,192.4h-2.1v9.1h2.1V192.4z M56,201.5h2.1v-9.1H56V201.5z M34.3,201.5l2.6-3.9
		h-1l2.7,3.9h2.4l-3.9-5.5v1.5l3.7-5.2h-2.3l-2.6,3.7l1,0l-2.6-3.7h-2.4l3.8,5.3v-1.5l-3.9,5.4H34.3z M18.6,194.1h4.8v-1.7h-6.9v9.1
		h7.1v-1.7h-5V194.1z M18.4,197.7h4.4V196h-4.4V197.7z"/>
	<path style="clip-path:url(#SVGID_00000088105948709872174510000001219980294820226743_);fill:#FFFFFF;" d="M181.8,261.4l0.9,4.6
		H181L181.8,261.4z M180.3,269.5l0.5-2.6h2.1l0.5,2.6h1.3l-2.2-10.1h-1.4l-2.2,10.1H180.3z M175.4,259.4H174v10.1h1.4V259.4z
		 M170.4,269.5v-1h-2.6v-9.1h-1.4v10.1H170.4z M158.9,268.3c-0.2-0.2-0.3-0.4-0.4-0.7c-0.1-0.3-0.1-0.6-0.1-1v-4.4
		c0-0.4,0-0.7,0.1-1s0.2-0.5,0.4-0.6c0.2-0.1,0.5-0.2,0.9-0.2c0.4,0,0.7,0.1,0.9,0.2c0.2,0.1,0.3,0.4,0.4,0.6c0.1,0.3,0.1,0.6,0.1,1
		v4.4c0,0.4,0,0.7-0.1,1c-0.1,0.3-0.2,0.5-0.4,0.7s-0.5,0.2-0.9,0.2C159.4,268.5,159.1,268.4,158.9,268.3 M161.4,269.2
		c0.4-0.3,0.7-0.7,0.9-1.1c0.2-0.5,0.3-1.1,0.3-1.7v-3.9c0-0.7-0.1-1.2-0.3-1.7c-0.2-0.5-0.5-0.8-0.9-1.1c-0.4-0.3-0.9-0.4-1.6-0.4
		c-0.7,0-1.2,0.1-1.6,0.4c-0.4,0.3-0.7,0.6-0.9,1.1c-0.2,0.5-0.3,1.1-0.3,1.7v3.8c0,0.7,0.1,1.3,0.3,1.7c0.2,0.5,0.5,0.9,0.9,1.1
		c0.4,0.3,1,0.4,1.6,0.4C160.4,269.6,161,269.5,161.4,269.2 M151.5,269.3c0.3-0.2,0.5-0.6,0.6-0.9l0.1,1.2h0.9v-5h-2.6v1h1.3v0.7
		c0,0.5,0,0.9-0.1,1.3c-0.1,0.3-0.2,0.6-0.4,0.8c-0.2,0.2-0.5,0.3-0.9,0.3c-0.4,0-0.7-0.1-0.9-0.2c-0.2-0.2-0.3-0.4-0.4-0.7
		c-0.1-0.3-0.1-0.7-0.1-1.2v-3.8c0-0.4,0-0.8,0.1-1.1c0-0.3,0.2-0.6,0.4-0.8c0.2-0.2,0.5-0.3,0.9-0.3c0.4,0,0.7,0.1,0.8,0.2
		c0.2,0.1,0.3,0.3,0.4,0.6c0.1,0.3,0.1,0.6,0.1,1.1v0.3h1.3v-0.4c0-0.7-0.1-1.2-0.3-1.7c-0.2-0.4-0.5-0.8-0.8-1
		c-0.4-0.2-0.9-0.3-1.5-0.3c-0.7,0-1.3,0.1-1.7,0.4c-0.4,0.3-0.7,0.7-0.8,1.2c-0.2,0.5-0.2,1.2-0.2,1.9v3.4c0,0.7,0.1,1.3,0.3,1.9
		c0.2,0.5,0.4,0.9,0.8,1.2c0.4,0.3,0.9,0.4,1.5,0.4C150.9,269.7,151.3,269.5,151.5,269.3 M140,269.5v-6.9l2.9,6.9h0.9v-10.1h-1.2
		v6.7l-2.9-6.7h-1v10.1H140z M131.3,268.3c-0.2-0.2-0.3-0.4-0.4-0.7c-0.1-0.3-0.1-0.6-0.1-1v-4.4c0-0.4,0-0.7,0.1-1
		c0.1-0.3,0.2-0.5,0.4-0.6c0.2-0.1,0.5-0.2,0.9-0.2c0.4,0,0.7,0.1,0.9,0.2c0.2,0.1,0.3,0.4,0.4,0.6s0.1,0.6,0.1,1v4.4
		c0,0.4,0,0.7-0.1,1c-0.1,0.3-0.2,0.5-0.4,0.7s-0.5,0.2-0.9,0.2C131.8,268.5,131.5,268.4,131.3,268.3 M133.8,269.2
		c0.4-0.3,0.7-0.7,0.9-1.1c0.2-0.5,0.3-1.1,0.3-1.7v-3.9c0-0.7-0.1-1.2-0.3-1.7c-0.2-0.5-0.5-0.8-0.9-1.1c-0.4-0.3-0.9-0.4-1.6-0.4
		s-1.2,0.1-1.6,0.4c-0.4,0.3-0.7,0.6-0.9,1.1c-0.2,0.5-0.3,1.1-0.3,1.7v3.8c0,0.7,0.1,1.3,0.3,1.7c0.2,0.5,0.5,0.9,0.9,1.1
		c0.4,0.3,1,0.4,1.6,0.4S133.4,269.5,133.8,269.2 M119.9,269.5l0.1-7.4l1.7,7.4h0.8l1.7-7.4l0.1,7.4h1.1l-0.2-10.1h-1.4l-1.8,8.2
		l-1.8-8.2H119l-0.2,10.1H119.9z M109.4,270.6c0.2-0.3,0.3-0.6,0.3-1.1v-1.4h-1.4v1.4h0.7c0,0.3-0.1,0.5-0.2,0.7
		c-0.1,0.2-0.3,0.3-0.5,0.4l0.2,0.6C108.9,271,109.2,270.8,109.4,270.6 M101,260.4h0.6c0.6,0,1.1,0.1,1.3,0.4
		c0.2,0.3,0.3,0.7,0.3,1.3c0,0.4-0.1,0.8-0.2,1c-0.1,0.2-0.3,0.4-0.6,0.5c-0.3,0.1-0.6,0.1-1,0.1H101V260.4z M101,269.5v-4.8h1.1
		l1.3,4.8h1.4l-1.4-5.1c0.3-0.1,0.5-0.3,0.7-0.5c0.2-0.2,0.3-0.5,0.4-0.8c0.1-0.3,0.1-0.7,0.1-1.1c0-0.6-0.1-1.2-0.3-1.6
		c-0.2-0.4-0.5-0.7-1-0.9c-0.4-0.2-1-0.3-1.7-0.3h-2v10.1H101z M93.2,261.4l0.9,4.6h-1.7L93.2,261.4z M91.7,269.5l0.5-2.6h2.1
		l0.5,2.6H96l-2.2-10.1h-1.4l-2.2,10.1H91.7z M86.3,269.5v-9.1h1.7v-1.1h-4.8v1.1h1.7v9.1H86.3z M77.9,261.4l0.9,4.6H77L77.9,261.4z
		 M76.4,269.5l0.5-2.6h2.1l0.5,2.6h1.3l-2.2-10.1h-1.4L75,269.5H76.4z M69.2,261.4l0.9,4.6h-1.7L69.2,261.4z M67.7,269.5l0.5-2.6
		h2.1l0.5,2.6h1.3l-2.2-10.1h-1.4l-2.2,10.1H67.7z M59.3,260.4h0.3c0.5,0,0.9,0,1.2,0.1c0.3,0.1,0.5,0.2,0.7,0.4
		c0.1,0.2,0.2,0.5,0.2,1c0,0.4,0,0.7-0.1,1c-0.1,0.2-0.3,0.4-0.5,0.5c-0.2,0.1-0.5,0.2-0.9,0.2h-0.8V260.4z M59.3,264.7h0.8
		c0.4,0,0.7,0.1,1,0.2c0.2,0.1,0.4,0.4,0.5,0.7c0.1,0.3,0.2,0.6,0.2,1.1c0,0.7-0.1,1.1-0.3,1.4c-0.2,0.3-0.6,0.4-1.3,0.4h-1V264.7z
		 M60.6,269.5c0.5,0,0.8-0.1,1.2-0.2c0.3-0.1,0.6-0.3,0.8-0.6c0.2-0.3,0.4-0.6,0.5-0.9c0.1-0.4,0.2-0.8,0.2-1.2
		c0-0.5-0.1-0.9-0.2-1.2c-0.1-0.3-0.3-0.6-0.6-0.9c-0.3-0.2-0.6-0.4-1-0.5c0.3,0,0.6-0.2,0.8-0.3c0.2-0.2,0.4-0.4,0.5-0.7
		c0.1-0.3,0.2-0.7,0.2-1.1c0-0.4-0.1-0.8-0.2-1.1c-0.1-0.3-0.3-0.6-0.5-0.8c-0.2-0.2-0.5-0.4-0.8-0.5c-0.3-0.1-0.7-0.1-1.2-0.1h-2.3
		v10.1H60.6z M49.9,269.5v-6.9l2.9,6.9h0.9v-10.1h-1.2v6.7l-2.9-6.7h-1v10.1H49.9z M42.4,261.4l0.9,4.6h-1.7L42.4,261.4z
		 M40.9,269.5l0.5-2.6h2.1l0.5,2.6h1.3L43,259.4h-1.4l-2.2,10.1H40.9z M33.7,261.4l0.9,4.6h-1.7L33.7,261.4z M32.2,269.5l0.5-2.6
		h2.1l0.5,2.6h1.3l-2.2-10.1H33l-2.2,10.1H32.2z M27.9,269.5v-1h-2.6v-9.1h-1.4v10.1H27.9z M18.9,269.2c0.4-0.3,0.7-0.7,0.8-1.2
		c0.1-0.5,0.2-1.1,0.2-1.9v-6.7h-1.3v6.8c0,0.4,0,0.8-0.1,1.2c-0.1,0.4-0.2,0.6-0.4,0.9c-0.2,0.2-0.5,0.3-0.9,0.3
		c-0.4,0-0.7-0.1-0.9-0.3c-0.2-0.2-0.3-0.5-0.4-0.9c-0.1-0.4-0.1-0.8-0.1-1.2v-6.8h-1.4v6.7c0,0.7,0.1,1.3,0.2,1.9
		c0.1,0.5,0.4,0.9,0.8,1.2c0.4,0.3,1,0.4,1.7,0.4C18,269.6,18.5,269.5,18.9,269.2"/>
	<path style="clip-path:url(#SVGID_00000088105948709872174510000001219980294820226743_);fill:#FFFFFF;" d="M178.2,250.6
		c0.8-0.4,1.5-0.9,2-1.7c0.5-0.8,0.9-1.8,1.2-2.9c0.3-1.2,0.4-2.6,0.4-4.2c0-2-0.2-3.7-0.6-5c-0.4-1.4-1-2.4-1.9-3.1
		c-0.8-0.7-2-1-3.3-1c-1.2,0-2.1,0.2-2.9,0.6c-0.7,0.4-1.3,0.9-1.7,1.5l0.1-11.3h8.9l0-1.7h-10.6v14.8h1.5c0.6-0.9,1.2-1.5,1.9-1.9
		c0.7-0.4,1.4-0.5,2.2-0.5c1,0,1.8,0.2,2.5,0.7c0.7,0.5,1.1,1.3,1.5,2.4c0.3,1.1,0.5,2.7,0.5,4.8c0,1.8-0.1,3.3-0.4,4.4
		c-0.3,1.1-0.7,2-1.4,2.5c-0.6,0.5-1.5,0.8-2.7,0.8c-1,0-1.9-0.2-2.5-0.6c-0.6-0.4-1.1-1.1-1.4-1.9c-0.3-0.9-0.4-2-0.4-3.4h-1.9
		c0,1.6,0.2,3,0.6,4.1c0.4,1.1,1.1,1.9,2,2.5c0.9,0.6,2.1,0.8,3.5,0.8C176.4,251.1,177.4,250.9,178.2,250.6 M165.3,237.8h-7.4v1.6
		h7.4V237.8z M153.7,250.8v-1.6h-10.7l7.6-11.5c0.6-0.9,1.2-1.8,1.7-2.8c0.5-0.9,1-1.9,1.4-2.9c0.4-1,0.5-2.1,0.5-3.2
		c0-2.3-0.5-4.1-1.6-5.4c-1.1-1.3-2.7-1.9-4.8-1.9c-1.6,0-2.9,0.3-3.9,0.9c-1,0.6-1.8,1.5-2.2,2.7c-0.5,1.2-0.7,2.7-0.7,4.5v0.6h1.9
		v-0.5c0-1.3,0.2-2.4,0.4-3.4c0.3-1,0.8-1.7,1.5-2.3c0.7-0.6,1.8-0.8,3.1-0.8c1.4,0,2.5,0.5,3.3,1.4c0.8,1,1.1,2.3,1.1,4
		c0,1.2-0.2,2.3-0.5,3.2c-0.3,1-0.7,1.9-1.3,2.7c-0.5,0.9-1.1,1.8-1.7,2.7l-8.1,12.3v1.4H153.7z M118.6,223.3h5
		c1.8,0,3.1,0.5,3.7,1.4c0.6,1,0.9,2.4,0.9,4.2c0,1.2-0.1,2.2-0.4,3.1c-0.3,0.9-0.7,1.5-1.3,2c-0.6,0.5-1.6,0.7-2.8,0.7h-5V223.3z
		 M118.6,250.8v-14.6h5.4l4.5,14.6h1.9l-4.7-15c1.2-0.2,2.1-0.6,2.7-1.3c0.6-0.7,1-1.5,1.3-2.5c0.2-1,0.3-2,0.3-3.1
		c0-1.3-0.2-2.6-0.5-3.6c-0.3-1.1-1-2-1.9-2.6c-0.9-0.6-2.2-1-4-1h-7v29.1H118.6z M112.6,250.8v-1.5h-8.2v-12.8h6.6V235h-6.6v-11.7
		h8.1v-1.6h-10.1v29.1H112.6z M86.9,223.3h3.6c1.5,0,2.7,0.2,3.4,0.7c0.8,0.5,1.3,1.2,1.5,2c0.3,0.9,0.4,1.8,0.4,2.9
		c0,1-0.1,1.9-0.3,2.7c-0.2,0.8-0.6,1.5-1.2,2c-0.6,0.5-1.4,0.8-2.5,0.8h-4.9V223.3z M86.9,236h5c1.2,0,2.1,0.3,2.7,0.9
		c0.7,0.6,1.1,1.3,1.4,2.3c0.3,1,0.4,2,0.4,3.2c0,2.3-0.3,4.1-1,5.2c-0.7,1.1-1.9,1.7-3.9,1.7h-4.7V236z M91.8,250.8
		c1.4,0,2.5-0.2,3.4-0.7c0.8-0.5,1.5-1.1,2-1.9c0.5-0.8,0.8-1.7,0.9-2.7c0.2-1,0.2-2.1,0.2-3.2c0-0.9-0.1-1.8-0.3-2.8
		c-0.2-1-0.6-1.9-1.2-2.7c-0.6-0.8-1.4-1.4-2.6-1.7c1-0.2,1.7-0.7,2.2-1.4c0.5-0.7,0.8-1.4,1-2.3c0.2-0.9,0.3-1.7,0.3-2.5
		c0-1-0.1-1.9-0.3-2.8c-0.2-0.9-0.6-1.6-1-2.3c-0.5-0.7-1.2-1.2-2-1.6c-0.9-0.4-2-0.6-3.3-0.6h-6v29.1H91.8z M69.8,248.8
		c-0.8-0.6-1.3-1.3-1.6-2.3c-0.3-1-0.4-2.1-0.4-3.5v-13.4c0-1.3,0.1-2.5,0.4-3.4c0.3-1,0.8-1.7,1.6-2.3c0.8-0.5,1.8-0.8,3.2-0.8
		c1.4,0,2.5,0.3,3.2,0.8c0.7,0.5,1.3,1.3,1.5,2.3c0.3,1,0.4,2.1,0.4,3.4V243c0,1.3-0.1,2.5-0.4,3.5c-0.3,1-0.8,1.8-1.6,2.3
		c-0.8,0.6-1.8,0.8-3.2,0.8C71.6,249.6,70.6,249.3,69.8,248.8 M77.4,250.1c1-0.8,1.8-1.8,2.2-3.1c0.4-1.3,0.6-2.8,0.6-4.4v-12.7
		c0-1.7-0.2-3.1-0.6-4.4c-0.4-1.3-1.2-2.3-2.2-3c-1-0.7-2.5-1.1-4.3-1.1c-1.8,0-3.3,0.4-4.3,1.1c-1,0.7-1.8,1.7-2.2,3
		c-0.4,1.3-0.6,2.7-0.6,4.4v12.7c0,1.7,0.2,3.1,0.6,4.4c0.4,1.3,1.1,2.3,2.2,3.1c1,0.8,2.5,1.1,4.4,1.1
		C74.9,251.2,76.4,250.8,77.4,250.1 M57.4,250.8v-27.5H63v-1.6H49.6v1.6h5.8v27.5H57.4z M44.6,250.1c1-0.7,1.6-1.7,2-3
		c0.4-1.3,0.6-2.8,0.6-4.4v-1.4h-1.9v1.8c0,1.3-0.1,2.5-0.4,3.5c-0.3,1-0.7,1.8-1.4,2.3c-0.7,0.6-1.7,0.8-3,0.8
		c-1.3,0-2.4-0.3-3.1-0.8c-0.7-0.6-1.3-1.3-1.5-2.4c-0.3-1-0.4-2.2-0.4-3.7v-12.9c0-1.4,0.1-2.6,0.4-3.6c0.3-1,0.8-1.8,1.5-2.4
		c0.7-0.6,1.8-0.9,3.2-0.9c1.3,0,2.2,0.3,2.9,0.8c0.7,0.5,1.2,1.3,1.4,2.2c0.3,1,0.4,2.1,0.4,3.5v1.5h1.9v-1.5
		c0-1.7-0.2-3.1-0.6-4.3c-0.4-1.2-1.1-2.2-2-2.9c-1-0.7-2.3-1-4-1c-1.8,0-3.3,0.4-4.3,1.1c-1,0.8-1.7,1.8-2.2,3.1
		c-0.4,1.3-0.6,2.8-0.6,4.5v12.4c0,1.6,0.2,3.1,0.6,4.4c0.4,1.3,1.1,2.4,2.1,3.2c1,0.8,2.5,1.2,4.4,1.2
		C42.2,251.2,43.6,250.8,44.6,250.1 M18.9,248.8c-0.8-0.6-1.3-1.3-1.6-2.3c-0.3-1-0.4-2.1-0.4-3.5v-13.4c0-1.3,0.1-2.5,0.4-3.4
		c0.3-1,0.8-1.7,1.6-2.3c0.8-0.5,1.8-0.8,3.2-0.8c1.4,0,2.5,0.3,3.2,0.8c0.7,0.5,1.3,1.3,1.5,2.3c0.3,1,0.4,2.1,0.4,3.4V243
		c0,1.3-0.1,2.5-0.4,3.5c-0.3,1-0.8,1.8-1.6,2.3c-0.8,0.6-1.8,0.8-3.2,0.8C20.7,249.6,19.6,249.3,18.9,248.8 M26.5,250.1
		c1-0.8,1.8-1.8,2.2-3.1c0.4-1.3,0.6-2.8,0.6-4.4v-12.7c0-1.7-0.2-3.1-0.6-4.4c-0.4-1.3-1.2-2.3-2.2-3c-1-0.7-2.5-1.1-4.3-1.1
		c-1.8,0-3.3,0.4-4.3,1.1c-1,0.7-1.8,1.7-2.2,3c-0.4,1.3-0.6,2.7-0.6,4.4v12.7c0,1.7,0.2,3.1,0.6,4.4c0.4,1.3,1.1,2.3,2.2,3.1
		s2.5,1.1,4.4,1.1C24,251.2,25.4,250.8,26.5,250.1"/>
	<path style="clip-path:url(#SVGID_00000088105948709872174510000001219980294820226743_);fill:#FFFFFF;" d="M175.8,150.9h8.6V149
		h-6.3v-10.2h-2.3V150.9z M163.6,146.3l2.3-5.3l2.3,5.3H163.6z M170.2,150.9h2.4l-5.5-12.1h-2.2l-5.5,12.1h2.3l1.2-2.8h6.1
		L170.2,150.9z M153.9,138.7v8.2l-6.7-8.2h-1.9v12.1h2.2v-8.2l6.7,8.2h1.9v-12.1H153.9z M134.6,149.1c-0.8,0-1.5-0.2-2.2-0.5
		c-0.6-0.4-1.2-0.9-1.5-1.5c-0.4-0.7-0.6-1.4-0.6-2.2c0-0.8,0.2-1.5,0.6-2.2c0.4-0.7,0.9-1.2,1.5-1.5c0.6-0.4,1.4-0.5,2.2-0.5
		c0.8,0,1.5,0.2,2.2,0.5c0.6,0.4,1.2,0.9,1.5,1.5s0.6,1.4,0.6,2.2c0,0.8-0.2,1.5-0.6,2.2s-0.9,1.2-1.5,1.5
		C136.2,148.9,135.5,149.1,134.6,149.1 M134.6,151c1.2,0,2.4-0.3,3.3-0.8c1-0.5,1.8-1.3,2.3-2.2c0.6-0.9,0.8-2,0.8-3.2
		s-0.3-2.3-0.8-3.2c-0.6-0.9-1.3-1.7-2.3-2.2c-1-0.5-2.1-0.8-3.3-0.8c-1.2,0-2.4,0.3-3.3,0.8c-1,0.5-1.8,1.3-2.3,2.2
		c-0.6,1-0.8,2-0.8,3.2s0.3,2.2,0.8,3.2c0.6,1,1.3,1.7,2.3,2.2C132.3,150.8,133.4,151,134.6,151 M121.7,150.9h2.3v-12.1h-2.3V150.9z
		 M112,150.9h2.3v-10.2h4v-1.9H108v1.9h4V150.9z M98,146.3l2.3-5.3l2.3,5.3H98z M104.5,150.9h2.4l-5.5-12.1h-2.2l-5.5,12.1H96
		l1.2-2.8h6.1L104.5,150.9z M88.2,138.7v8.2l-6.7-8.2h-1.9v12.1h2.2v-8.2l6.7,8.2h1.9v-12.1H88.2z M73.1,143.1
		c0,0.8-0.3,1.4-0.8,1.8c-0.5,0.4-1.3,0.6-2.2,0.6h-2.6v-4.8h2.6c1,0,1.7,0.2,2.2,0.6C72.9,141.7,73.1,142.3,73.1,143.1 M75.6,150.9
		l-2.8-4c0.8-0.3,1.5-0.8,1.9-1.5c0.4-0.7,0.7-1.4,0.7-2.4c0-0.9-0.2-1.7-0.6-2.3c-0.4-0.6-1-1.1-1.8-1.5c-0.8-0.3-1.7-0.5-2.7-0.5
		h-5v12.1h2.3v-3.5h2.7c0.2,0,0.4,0,0.5,0l2.5,3.6H75.6z M54.2,149v-3.3H60v-1.9h-5.9v-3.2h6.6v-1.9h-8.9v12.1H61V149H54.2z
		 M42.2,150.9h2.3v-10.2h4v-1.9H38.2v1.9h4V150.9z M32.5,138.7v8.2l-6.7-8.2H24v12.1h2.2v-8.2l6.7,8.2h1.9v-12.1H32.5z M16.7,150.9
		H19v-12.1h-2.3V150.9z"/>
	<path style="clip-path:url(#SVGID_00000088105948709872174510000001219980294820226743_);fill:#FFFFFF;" d="M183.7,181.6v-10.8
		h-5.6v10L183.7,181.6z M178.6,184.1c1.9-0.6,3.6-1.4,5-2.5l-3.5-4.4c-1.1,0.9-2.2,1.6-3.4,2c-1.2,0.4-2.3,0.6-3.5,0.6
		c-1.3,0-2.4-0.2-3.5-0.6c-1-0.4-2-1-2.7-1.8c-0.8-0.8-1.4-1.7-1.8-2.7c-0.4-1-0.6-2.2-0.6-3.4c0-1.3,0.2-2.4,0.6-3.4
		c0.4-1,1-1.9,1.8-2.7c0.8-0.8,1.7-1.3,2.7-1.7c1.1-0.4,2.2-0.6,3.5-0.6c1.3,0,2.6,0.2,3.7,0.7c1.1,0.5,2.2,1.2,3.1,2.3l3.9-3.6
		c-1.3-1.5-2.9-2.6-4.8-3.4c-1.9-0.8-4-1.2-6.4-1.2c-2.1,0-4.1,0.3-5.8,1c-1.8,0.7-3.3,1.6-4.6,2.9c-1.3,1.2-2.3,2.7-3.1,4.4
		c-0.7,1.7-1.1,3.5-1.1,5.5c0,2,0.4,3.8,1.1,5.5c0.7,1.7,1.7,3.1,3,4.4c1.3,1.2,2.8,2.2,4.6,2.9c1.8,0.7,3.7,1,5.8,1
		C174.8,185,176.7,184.7,178.6,184.1 M131,184.6v-19.1h-2.5l15.7,19.1h5V158h-6.1v19.1h2.5L130,158h-5.1v26.5H131z M114.1,158H108
		v26.5h6.1V158z M78.8,184.6v-19.1h-2.5l15.7,19.1h5V158h-6.1v19.1h2.5L77.9,158h-5.1v26.5H78.8z M61.9,158h-6.1v26.5h6.1V158z
		 M20.8,184.6v-17.7h-1.3l9.1,14.9h2.8l8.9-14.9h-1.1l0,17.7H45L44.9,158h-5l-11.1,18.7h2.7L20.1,158h-5.1v26.5H20.8z"/>
</g>
<line class="st1" x1="13.6" y1="256.1" x2="185.8" y2="256.1"/>
<rect x="14" y="16.4" class="st2" width="170.8" height="35.6"/>
<g>
	<defs>
		<rect id="SVGID_00000002355966265158547090000002934985082355977613_" x="10.8" y="12.5" width="177.4" height="258.7"/>
	</defs>
	<clipPath id="SVGID_00000101073050103901581440000013751897494062974602_">
		<use xlink:href="#SVGID_00000002355966265158547090000002934985082355977613_"  style="overflow:visible;"/>
	</clipPath>
	<path style="clip-path:url(#SVGID_00000101073050103901581440000013751897494062974602_);fill:#184891;" d="M125.7,34.1v-5
		c0-1.2-1.8-1.5-1.8-1.5h-7.2v7.9h7.2C124,35.6,125.7,35.3,125.7,34.1 M150.6,34.1v-5c0-1.3-1.9-1.5-1.9-1.5h-7v7.4h7
		C149.9,35.1,150.6,34.1,150.6,34.1 M176.4,41V29.4c0-1-0.8-1.9-1.9-1.9H168c-1,0-1.9,0.8-1.9,1.9V41c0,1,0.8,1.9,1.9,1.9h6.5
		C175.6,42.9,176.4,42,176.4,41 M182.6,41.9c0,3.2-2.6,5.8-5.8,5.8h-11.3c-3.2,0-5.8-2.6-5.8-5.8V28.3c0-3.2,2.6-5.8,5.8-5.8h11.3
		c3.2,0,5.8,2.6,5.8,5.8V41.9z M152.9,39.6l4.5,7.9h-7l-4.1-7.5h-4.8v7.5h-6.4V22.9h1.1h5.3h7h2.3c0.2,0,2-0.2,3.9,1.3
		c2.2,1.6,2.1,5,2.1,5v5C157,39.3,152.9,39.6,152.9,39.6 M132.2,29.2v5c0,0,0.2,6.3-6.4,6.3H124h-5.4h-1.8v7.1h-6.3V22.9h1.1h5.2
		h1.5h5.6h2.1C132.4,22.9,132.2,29.2,132.2,29.2 M107.6,47.5H94.5h-6.4v-5v-5v-5v-4.8v-4.8h6.4h13.1v4.8H94.5v14.8h13.1V47.5z
		 M84,47.5h-6.3h-0.4L69.1,33v14.6h-6.3V22.9h6.3h0.2l8.4,14.7V22.9H84V47.5z M59.5,47.5h-3.1H50h-3.1v-4.7H50V27.7h-3.1v-4.7H50
		h6.3h3.1v4.7h-3.1v15.1h3.1V47.5z M43.7,47.5h-6.3V33.8l-5,8.7H30h-2.4l-4.9-8.6v13.7h-6.3V22.9h5.1l0,0H23l7,12.9l7-12.9h1.5l0,0
		h5.2V47.5z M188.2,12.5H10.8v45.2h177.4V12.5z"/>
</g>
<rect x="97.5" y="32.7" class="st4" width="9.6" height="4.8"/>
<g>
	<defs>
		<rect id="SVGID_00000168835779625151957500000016587408753531501711_" x="10.8" y="12.5" width="177.4" height="258.7"/>
	</defs>
	<clipPath id="SVGID_00000158743246142484580260000014049856986893220235_">
		<use xlink:href="#SVGID_00000168835779625151957500000016587408753531501711_"  style="overflow:visible;"/>
	</clipPath>
	<path style="clip-path:url(#SVGID_00000158743246142484580260000014049856986893220235_);fill:#FFFFFF;" d="M50.2,112.3H29.5
		c-3.1,0-2.8-3-1.4-4.1c2.2-1.7,8.1-6.3,10.9-8.5c6-4.7,11-7.5,11-17.1c0-7.3-4.4-12.8-15.2-12.8H13.4v8.7h19c7.5,0,8,8.1,3.2,11.6
		c-2.4,1.8-13.2,9.5-17.1,12.3c-4.5,3.3-6.8,5.6-6.8,12.4v6.7h5.3h33.2V112.3z"/>
</g>
<rect x="10.9" y="60" class="st2" width="177.3" height="4"/>
<rect x="10.9" y="127.7" class="st2" width="177.3" height="4"/>
<g>
	<defs>
		<rect id="SVGID_00000161595543701380440400000003547101480491832219_" x="10.8" y="12.5" width="177.4" height="258.7"/>
	</defs>
	<clipPath id="SVGID_00000144311470552985704000000000752741790617672633_">
		<use xlink:href="#SVGID_00000161595543701380440400000003547101480491832219_"  style="overflow:visible;"/>
	</clipPath>
	<path style="clip-path:url(#SVGID_00000144311470552985704000000000752741790617672633_);fill:#FFFFFF;" d="M141.1,112.3h-20.7
		c-3.1,0-2.8-3-1.4-4.1c2.2-1.7,8.1-6.3,10.9-8.5c6-4.7,11-7.5,11-17.1c0-7.3-4.4-12.8-15.2-12.8h-21.5v8.7h19c7.5,0,8,8.1,3.2,11.6
		c-2.4,1.8-13.2,9.5-17.1,12.3c-4.5,3.3-6.8,5.6-6.8,12.4v6.7h5.3h33.2V112.3z"/>
	<path style="clip-path:url(#SVGID_00000144311470552985704000000000752741790617672633_);fill:#FFFFFF;" d="M87,107.5
		c0,3.5-1.5,5.2-5.2,5.2h-9.1c-3.4,0-5.2-1.6-5.2-5.2V83c0-2.9,1.6-5.2,5.2-5.2h9.1c3.3,0,5.2,2.3,5.2,5.2V107.5z M67.5,68.6
		c-6.7,0-12.2,5.5-12.2,12.2v28.5c0,6.7,5.5,12.2,12.2,12.2h19.1c6.7,0,12.2-5.5,12.2-12.2V80.8c0-6.7-5.5-12.2-12.2-12.2H67.5z"/>
</g>
<polygon class="st2" points="161.8,69.8 145.2,100.3 145.2,110.9 173.4,110.9 173.4,121.5 183.3,121.5 183.3,110.9 188.1,110.9 
	188.1,101 183.3,101 183.3,89.9 173.4,89.9 173.4,101 156.1,101 173,69.8 "/>
</svg>
