<?xml version="1.0" standalone="no"?>
<!DOCTYPE svg PUBLIC "-//W3C//DTD SVG 20010904//EN"
 "http://www.w3.org/TR/2001/REC-SVG-20010904/DTD/svg10.dtd">
<svg version="1.0" xmlns="http://www.w3.org/2000/svg"
 width="500.000000pt" height="500.000000pt" viewBox="0 0 500.000000 500.000000"
 preserveAspectRatio="xMidYMid meet">

<g transform="translate(0.000000,500.000000) scale(0.100000,-0.100000)"
fill="#000000" stroke="none">
<path d="M2396 4815 c-30 -50 -46 -57 -46 -21 0 35 -10 56 -26 56 -10 0 -14
-12 -14 -40 0 -22 -4 -40 -10 -40 -5 0 -22 16 -37 35 -15 19 -36 35 -45 35
-26 0 -22 -12 17 -50 19 -19 35 -40 35 -48 0 -8 -13 -36 -29 -63 -25 -40 -27
-48 -14 -53 9 -4 17 -5 17 -4 1 2 14 23 30 47 30 47 46 43 46 -11 0 -21 5 -28
20 -28 17 0 20 7 20 48 l0 47 36 -42 c20 -24 44 -43 55 -43 26 0 25 5 -21 62
-22 28 -37 55 -33 62 3 6 19 30 35 54 27 39 27 42 9 42 -12 0 -28 -16 -45 -45z"/>
<path d="M2517 4854 c-3 -4 9 -37 28 -75 43 -84 45 -109 10 -109 -16 0 -25 -6
-25 -15 0 -21 53 -19 72 3 13 14 88 174 88 187 0 3 -7 5 -16 5 -9 0 -24 -20
-36 -50 -11 -27 -24 -50 -29 -50 -5 0 -20 25 -34 55 -22 50 -41 66 -58 49z"/>
<path d="M2740 4833 c0 -10 12 -48 26 -85 30 -76 27 -103 -11 -94 -31 8 -35
-19 -5 -29 34 -11 65 19 114 109 51 93 52 96 32 96 -8 0 -25 -21 -39 -47 -13
-27 -30 -48 -37 -48 -7 0 -20 23 -28 50 -15 47 -27 64 -44 65 -5 0 -8 -8 -8
-17z"/>
<path d="M1946 4784 c-42 -13 -47 -18 -42 -37 4 -12 9 -55 13 -94 5 -64 4 -73
-11 -73 -9 0 -16 -6 -16 -12 -1 -13 -69 57 -116 118 -18 23 -31 30 -44 27 -18
-5 -20 -15 -20 -120 0 -101 2 -114 16 -109 9 3 18 6 20 6 2 0 4 11 4 25 0 19
8 28 33 39 29 13 34 12 48 -5 14 -16 21 -17 50 -7 78 25 89 47 71 138 -14 68
-11 80 22 80 21 0 26 -10 46 -85 21 -78 38 -102 54 -77 3 5 -7 52 -22 105 -29
107 -27 105 -106 81z m-174 -161 c26 -23 23 -43 -7 -43 -21 0 -25 5 -25 30 0
34 6 37 32 13z"/>
<path d="M2985 4722 c-23 -60 -35 -78 -52 -80 -27 -4 -37 -28 -15 -37 27 -10
66 29 92 94 22 54 28 61 50 59 22 -3 25 -7 23 -38 -1 -19 -11 -61 -21 -92 -18
-55 -18 -57 0 -61 11 -3 21 0 23 6 2 7 13 46 25 87 12 41 23 82 26 91 4 15
-12 22 -106 45 -11 2 -24 -19 -45 -74z"/>
<path d="M3212 4713 c-23 -61 -23 -72 -2 -93 11 -11 34 -23 50 -27 34 -6 35
-11 16 -58 -15 -34 -12 -45 10 -45 11 0 84 165 84 190 0 6 -8 10 -18 10 -11 0
-23 -13 -31 -35 -10 -29 -17 -35 -40 -35 -45 0 -57 23 -38 70 8 21 12 41 9 44
-13 14 -30 4 -40 -21z"/>
<path d="M1518 4620 c-57 -30 -62 -40 -38 -75 4 -5 15 -33 24 -62 14 -42 15
-55 4 -72 -15 -25 -3 -39 20 -24 23 14 21 84 -3 146 -17 42 -18 49 -5 57 29
19 41 9 77 -65 26 -51 43 -75 55 -75 10 0 18 5 18 10 0 10 -88 190 -93 190 -1
-1 -28 -14 -59 -30z"/>
<path d="M3464 4598 c-28 -55 -73 -107 -96 -110 -27 -4 -34 -23 -13 -32 28
-10 72 21 105 76 18 29 34 55 35 56 2 2 13 1 24 -3 30 -9 26 -35 -14 -115 -30
-60 -33 -71 -20 -76 20 -8 15 -15 68 93 l46 91 -53 26 c-29 14 -56 26 -59 26
-4 0 -14 -15 -23 -32z"/>
<path d="M1315 4497 c-40 -29 -54 -48 -55 -73 0 -24 29 -54 53 -54 14 0 17
-10 17 -50 0 -27 3 -50 8 -50 21 1 31 20 34 65 3 57 19 65 46 23 15 -23 21
-26 34 -15 14 11 10 21 -35 94 -29 45 -56 82 -62 82 -5 0 -23 -10 -40 -22z
m53 -76 c-4 -20 -35 -26 -53 -11 -20 17 -19 47 3 59 13 8 21 6 35 -11 10 -12
16 -28 15 -37z"/>
<path d="M3663 4456 c-28 -24 -66 -55 -84 -69 -27 -21 -31 -29 -22 -38 10 -10
17 -9 32 5 19 17 21 17 51 0 23 -14 30 -25 28 -44 -2 -19 6 -31 34 -52 21 -16
47 -28 59 -28 11 0 46 24 78 55 55 53 59 54 74 37 25 -28 22 -39 -34 -104 -41
-46 -49 -62 -40 -71 10 -9 20 -3 48 28 64 73 106 125 102 128 -2 2 -25 20 -50
40 l-45 36 -54 -54 c-47 -47 -60 -55 -92 -55 -45 0 -45 -1 -18 116 30 129 19
141 -67 70z m37 -28 c0 -33 -14 -58 -31 -58 -29 0 -33 20 -8 46 25 26 39 31
39 12z"/>
<path d="M1113 4354 c-5 -14 9 -70 53 -203 8 -24 35 8 28 34 -4 16 2 28 22 44
24 19 29 20 49 7 20 -13 24 -13 38 1 15 15 9 21 -71 74 -93 63 -109 68 -119
43z m78 -62 c14 -12 20 -25 16 -35 -8 -22 -33 -22 -40 1 -2 9 -8 25 -12 35 -9
22 7 22 36 -1z"/>
<path d="M3985 4153 l-80 -75 43 -40 c38 -35 48 -39 75 -34 38 8 53 22 62 58
6 22 1 33 -22 57 l-30 29 29 30 c23 23 27 31 16 39 -10 8 -32 -7 -93 -64z m49
-49 c19 -18 19 -20 6 -45 -13 -23 -37 -24 -62 -2 -18 16 -18 17 4 40 25 27 31
28 52 7z"/>
<path d="M912 4178 c-9 -9 -5 -19 20 -45 l32 -33 -32 -32 -32 -32 -30 29 c-26
25 -32 27 -40 15 -5 -8 -9 -18 -7 -22 1 -4 35 -36 76 -72 65 -56 76 -63 86
-49 10 13 5 22 -24 49 l-36 33 32 33 33 32 33 -32 c31 -30 35 -31 48 -16 12
14 8 21 -26 52 -22 19 -57 50 -77 69 -42 38 -40 37 -56 21z"/>
<path d="M4126 4052 c-76 -65 -99 -97 -83 -111 10 -8 32 8 91 68 59 59 74 80
62 84 -10 4 -35 -11 -70 -41z"/>
<path d="M4201 3934 c-92 -66 -93 -67 -85 -87 5 -14 12 -12 46 16 l39 32 20
-25 c28 -37 34 -62 17 -71 -38 -21 -58 -44 -49 -58 7 -11 28 -1 99 50 76 54
88 66 77 78 -11 11 -18 10 -43 -8 -17 -11 -34 -21 -39 -21 -4 1 -18 17 -31 37
-22 34 -22 36 -5 48 55 40 55 41 41 52 -10 9 -30 -1 -87 -43z"/>
<path d="M741 3966 c-9 -11 -1 -21 41 -52 115 -84 116 -84 129 -68 7 9 8 18 3
23 -22 19 -152 111 -156 111 -3 0 -11 -6 -17 -14z"/>
<path d="M751 3844 c-17 -14 -29 -30 -25 -35 9 -16 -12 -10 -39 11 -30 24 -43
25 -51 5 -3 -10 18 -32 67 -68 40 -29 77 -56 84 -60 17 -11 73 69 73 103 0 31
-33 70 -60 70 -10 0 -32 -12 -49 -26z m53 -27 c22 -16 18 -60 -5 -65 -9 -1
-27 6 -40 17 -23 19 -24 19 -5 40 22 25 26 25 50 8z"/>
<path d="M550 3663 c-13 -27 -28 -51 -32 -54 -5 -3 11 -16 34 -29 75 -41 108
-71 108 -96 0 -15 6 -24 15 -24 8 0 15 4 15 9 0 5 3 16 6 24 7 20 -38 66 -93
97 -48 26 -47 26 -30 58 l13 22 79 -41 c72 -38 80 -40 91 -24 11 15 3 22 -76
61 -49 24 -92 44 -97 44 -4 0 -19 -21 -33 -47z"/>
<path d="M4423 3661 l-28 -53 -63 7 c-57 5 -63 4 -60 -12 2 -13 14 -19 46 -21
47 -3 54 -20 26 -60 -9 -13 -13 -31 -9 -43 6 -18 12 -13 42 37 l36 57 60 -7
c51 -5 58 -4 53 10 -3 9 -6 18 -6 20 0 2 -18 4 -40 4 -45 0 -47 5 -23 55 12
26 14 38 6 46 -9 9 -19 -2 -40 -40z"/>
<path d="M4206 3497 c3 -10 9 -15 12 -12 3 3 0 11 -7 18 -10 9 -11 8 -5 -6z"/>
<path d="M480 3463 c-39 -27 -49 -45 -50 -90 0 -33 5 -46 26 -62 41 -32 91
-43 129 -27 90 38 86 143 -6 180 -50 20 -69 20 -99 -1z m85 -38 c42 -21 61
-55 46 -84 -9 -16 -21 -21 -55 -21 -76 0 -120 57 -79 102 20 22 45 23 88 3z"/>
<path d="M4444 3461 c-70 -44 -83 -103 -34 -153 28 -28 35 -30 82 -26 64 7
108 48 108 103 0 75 -89 119 -156 76z m108 -38 c42 -38 8 -92 -64 -100 -80 -9
-103 56 -35 98 39 23 75 24 99 2z"/>
<path d="M4226 3457 c3 -10 9 -15 12 -12 3 3 0 11 -7 18 -10 9 -11 8 -5 -6z"/>
<path d="M4267 3359 c4 -13 8 -18 11 -10 2 7 -1 18 -6 23 -8 8 -9 4 -5 -13z"/>
<path d="M394 3273 c-3 -10 -12 -35 -19 -55 -7 -21 -12 -38 -11 -38 2 0 47
-13 101 -30 95 -28 114 -28 115 1 0 3 -37 17 -82 30 l-83 25 3 42 c3 42 -13
59 -24 25z"/>
<path d="M4301 3275 c1 -19 18 -51 18 -35 0 8 -4 22 -9 30 -5 8 -9 11 -9 5z"/>
<path d="M4440 3230 c-12 -7 -12 -13 -4 -27 18 -30 58 -38 126 -26 68 11 80 6
76 -32 -3 -16 -19 -23 -85 -39 -68 -16 -83 -23 -83 -39 0 -15 5 -18 23 -13 12
3 56 13 97 22 41 9 79 20 83 24 4 4 2 31 -6 61 l-14 54 -90 -3 c-74 -3 -93 -1
-100 12 -6 10 -13 12 -23 6z"/>
<path d="M4326 3195 c8 -37 14 -45 14 -19 0 10 -5 26 -10 34 -8 11 -9 7 -4
-15z"/>
<path d="M4342 3140 c0 -8 4 -26 8 -40 6 -20 8 -21 8 -5 0 11 -3 29 -8 40 -5
12 -8 14 -8 5z"/>
<path d="M340 3050 c0 -16 7 -20 34 -20 43 0 48 -8 40 -59 l-6 -40 -44 6 c-39
5 -44 4 -44 -14 0 -18 11 -21 101 -33 85 -11 103 -10 110 1 15 23 11 26 -41
33 -53 7 -55 10 -44 65 7 32 7 32 55 26 44 -6 49 -5 49 13 0 16 -11 21 -82 30
-116 17 -128 16 -128 -8z"/>
<path d="M4367 3025 c3 -27 7 -52 9 -54 7 -8 2 54 -6 79 -6 17 -7 9 -3 -25z"/>
<path d="M2419 3007 c-263 -75 -339 -400 -136 -582 71 -64 141 -88 247 -83
100 5 165 33 231 99 162 162 112 441 -96 543 -68 33 -175 43 -246 23z m110
-88 c1 11 6 10 22 -5 11 -10 18 -26 16 -35 -3 -12 0 -16 9 -12 24 9 15 42 -16
58 -16 9 -30 20 -30 25 0 14 8 13 52 -12 35 -20 39 -26 36 -55 -2 -18 0 -34 6
-36 5 -2 7 -11 3 -21 -6 -14 -15 -17 -44 -12 -21 3 -41 5 -45 6 -5 0 -8 14 -8
30 0 20 -5 30 -15 30 -11 0 -13 -7 -9 -29 5 -25 3 -30 -17 -34 -14 -2 -4 -5
21 -6 25 -1 52 -6 60 -12 11 -7 6 -8 -19 -4 -22 5 -31 4 -27 -3 12 -19 -5 -40
-30 -37 -26 3 -59 25 -37 25 7 0 14 -4 18 -10 9 -14 34 0 28 16 -3 9 -13 12
-32 8 -14 -4 -23 -3 -19 1 4 5 3 14 -3 22 -9 10 -15 11 -26 2 -24 -20 -33 2
-21 51 13 49 20 59 58 77 48 22 55 21 61 -11 4 -17 7 -25 8 -17z m-146 -126
c4 -3 3 -11 -3 -18 -13 -16 -5 -35 15 -35 8 0 11 -7 8 -20 -3 -12 0 -20 6 -20
7 0 9 -4 6 -10 -3 -6 1 -7 9 -4 9 3 16 2 16 -4 0 -18 -29 -21 -40 -4 -8 13 -9
8 -6 -23 3 -22 3 -32 0 -22 -10 32 -24 17 -20 -23 4 -41 -5 -57 -26 -44 -7 4
-23 9 -36 10 -24 3 -72 50 -72 71 0 6 -3 18 -6 27 -5 13 2 16 32 17 22 1 31 3
21 6 -13 3 -16 10 -11 26 6 20 5 20 -14 -3 -12 -14 -21 -20 -22 -14 0 22 26
63 50 77 23 15 75 20 93 10z m363 -13 c17 -15 46 -72 39 -79 -3 -2 -12 5 -21
17 -8 12 -20 22 -26 22 -6 0 -3 -9 6 -19 17 -19 17 -20 -6 -24 -13 -2 -4 -5
22 -6 25 -2 40 -5 33 -7 -7 -3 -10 -11 -7 -19 3 -7 -5 -29 -18 -49 -20 -31
-41 -42 -72 -37 -4 1 -14 -3 -21 -9 -9 -7 -16 -6 -25 5 -7 8 -9 15 -5 15 5 0
1 8 -8 18 -10 11 -14 26 -10 40 4 16 2 21 -9 17 -9 -4 -14 1 -14 15 0 13 5 19
14 15 11 -4 13 1 8 20 -5 18 -3 24 6 23 9 -2 12 8 10 30 l-2 33 46 -5 c25 -2
52 -10 60 -16z m-186 -15 c-7 -9 -15 -13 -17 -11 -7 7 7 26 19 26 6 0 6 -6 -2
-15z m-126 -41 c3 -8 2 -12 -4 -9 -6 3 -10 10 -10 16 0 14 7 11 14 -7z m106
-3 c0 -24 -16 -36 -23 -19 -4 9 -6 10 -6 1 -1 -19 16 -24 29 -8 16 19 30 19
30 0 0 -9 6 -12 15 -9 8 4 15 1 15 -5 0 -10 -20 -16 -42 -12 -4 0 -10 -10 -14
-24 -4 -17 -13 -25 -28 -25 -31 0 -37 9 -25 33 9 16 13 17 20 6 5 -8 9 -9 9
-3 0 20 -12 23 -35 8 -16 -10 -25 -12 -30 -4 -8 13 4 52 15 45 4 -3 10 4 13
15 7 28 57 28 57 1z m60 -2 c-7 -11 -14 -18 -17 -15 -3 3 0 12 7 21 18 21 23
19 10 -6z m8 -95 c-4 -3 -12 5 -18 18 -12 22 -12 22 6 6 10 -10 15 -20 12 -24z
m-168 22 c0 -2 -7 -9 -15 -16 -13 -11 -14 -10 -9 4 5 14 24 23 24 12z m40 -51
c-7 -8 -18 -15 -24 -15 -6 0 -2 7 8 15 25 19 32 19 16 0z m44 -1 c3 -9 3 -21
0 -26 -5 -7 3 -9 22 -4 28 6 28 6 9 -10 -16 -13 -16 -15 -3 -11 10 3 20 2 24
-4 4 -6 11 -6 19 1 8 7 19 9 25 5 12 -7 14 -35 1 -35 -4 0 -6 -11 -3 -25 5
-30 -9 -49 -51 -70 -37 -18 -35 -19 -40 3 -4 13 -5 12 -6 -5 -1 -22 -5 -22
-72 3 -21 8 -52 61 -54 96 -3 31 8 43 27 32 7 -5 30 -7 52 -5 39 3 39 2 33
-28 -5 -23 -3 -31 8 -31 10 0 15 11 15 35 0 32 -2 35 -29 35 -17 0 -32 4 -35
9 -4 5 4 7 16 3 13 -3 19 -1 15 6 -8 12 1 42 13 42 4 0 11 -7 14 -16z m42 -11
c-7 -7 -26 7 -26 19 0 6 6 6 15 -2 9 -7 13 -15 11 -17z"/>
<path d="M2455 2914 c-14 -15 -25 -36 -24 -48 1 -19 2 -18 12 5 7 15 23 36 37
48 14 11 19 20 12 21 -7 0 -24 -12 -37 -26z"/>
<path d="M2305 2750 c3 -5 8 -10 11 -10 2 0 4 5 4 10 0 6 -5 10 -11 10 -5 0
-7 -4 -4 -10z"/>
<path d="M2370 2720 c0 -5 5 -10 11 -10 5 0 7 5 4 10 -3 6 -8 10 -11 10 -2 0
-4 -4 -4 -10z"/>
<path d="M2314 2689 c-10 -17 8 -28 39 -22 37 7 35 33 -2 33 -17 0 -33 -5 -37
-11z m53 -5 c-3 -3 -12 -4 -19 -1 -8 3 -5 6 6 6 11 1 17 -2 13 -5z"/>
<path d="M2250 2661 c0 -4 11 -20 25 -35 26 -28 58 -36 49 -12 -3 8 -11 13
-18 10 -7 -3 -18 7 -26 21 -13 24 -30 34 -30 16z"/>
<path d="M2696 2745 c-3 -8 -1 -15 3 -15 5 0 11 7 15 15 3 8 1 15 -3 15 -5 0
-11 -7 -15 -15z"/>
<path d="M2641 2678 c1 -24 3 -35 6 -25 3 11 14 17 34 17 19 0 29 5 29 15 0
10 -10 15 -31 15 -17 0 -28 4 -24 10 3 6 1 10 -4 10 -6 0 -10 -19 -10 -42z
m42 5 c-7 -2 -19 -2 -25 0 -7 3 -2 5 12 5 14 0 19 -2 13 -5z"/>
<path d="M2750 2656 c0 -8 -12 -24 -27 -35 -16 -11 -22 -21 -15 -21 14 0 62
47 62 61 0 5 -4 9 -10 9 -5 0 -10 -6 -10 -14z"/>
<path d="M2498 2633 c6 -2 18 -2 25 0 6 3 1 5 -13 5 -14 0 -19 -2 -12 -5z"/>
<path d="M2431 2492 c-1 -28 23 -25 27 4 2 14 1 16 -6 5 -8 -11 -10 -11 -15 0
-3 8 -6 4 -6 -9z"/>
<path d="M2567 2503 c-4 -3 -1 -13 5 -21 10 -11 8 -17 -7 -28 -16 -12 -16 -14
-3 -14 20 0 36 42 19 48 -6 2 -9 8 -5 13 6 10 0 12 -9 2z"/>
<path d="M2470 2435 c7 -8 17 -15 22 -15 6 0 5 7 -2 15 -7 8 -17 15 -22 15 -6
0 -5 -7 2 -15z"/>
<path d="M4635 2995 c-5 -2 -41 -7 -79 -10 l-69 -7 6 -55 c6 -61 28 -93 64
-93 47 0 84 75 52 107 -8 8 -2 13 21 18 38 8 50 -4 50 -52 0 -23 5 -33 15 -33
17 0 18 15 9 84 -6 42 -9 46 -33 45 -14 0 -30 -2 -36 -4z m-50 -75 c7 -23 -10
-50 -31 -50 -15 0 -19 6 -28 43 -6 25 -4 27 23 27 21 0 32 -6 36 -20z"/>
<path d="M4387 2880 c3 -47 7 -87 9 -89 7 -8 3 94 -6 134 -6 29 -7 16 -3 -45z"/>
<path d="M354 2811 c-35 -21 -54 -64 -47 -104 13 -67 109 -98 173 -55 70 47
62 132 -15 164 -46 19 -74 18 -111 -5z m101 -35 c28 -12 35 -20 35 -43 0 -16
-5 -34 -12 -41 -16 -16 -100 -15 -122 1 -26 19 -18 68 14 84 32 16 43 16 85
-1z"/>
<path d="M4586 2790 c-37 -11 -73 -45 -80 -76 -9 -35 18 -92 49 -104 69 -26
147 0 165 56 26 77 -52 148 -134 124z m88 -56 c23 -22 20 -71 -3 -84 -36 -19
-90 -12 -116 15 -31 31 -31 39 1 64 32 25 96 28 118 5z"/>
<path d="M4400 2698 c-1 -500 -198 -974 -547 -1322 -378 -377 -878 -573 -1413
-553 -235 9 -459 57 -660 141 -46 20 -85 34 -87 32 -7 -7 171 -77 272 -107
167 -51 293 -70 490 -76 138 -4 210 -1 303 11 448 62 829 255 1138 579 260
272 427 609 489 983 16 96 32 394 22 394 -4 0 -7 -37 -7 -82z"/>
<path d="M363 2563 c-43 -3 -53 -7 -53 -22 0 -13 17 -26 55 -42 30 -13 55 -29
55 -35 0 -6 -22 -26 -50 -45 -75 -51 -68 -63 33 -56 45 4 94 7 110 7 21 0 27
5 27 21 0 20 -3 21 -60 15 -33 -4 -60 -3 -60 2 0 4 14 18 30 30 17 13 30 26
30 30 0 4 -15 14 -32 22 -55 26 -47 40 21 40 54 0 61 2 61 20 0 21 -21 23
-167 13z"/>
<path d="M4524 2516 c-58 -58 -36 -134 45 -156 79 -21 141 17 141 87 0 47 -16
72 -55 89 -57 24 -93 18 -131 -20z m126 -21 c25 -13 30 -22 30 -51 0 -28 -5
-36 -27 -45 -36 -14 -81 -4 -110 23 -28 26 -29 42 -3 68 24 24 70 26 110 5z"/>
<path d="M438 2223 c-46 -29 -58 -74 -33 -122 45 -88 171 -45 163 55 -2 31
-10 43 -37 61 -40 27 -57 28 -93 6z"/>
<path d="M2200 2233 c0 -5 123 -73 273 -153 263 -140 271 -145 230 -148 -23
-2 -307 6 -632 17 -680 24 -651 24 -651 13 0 -5 163 -14 363 -21 199 -7 468
-16 597 -22 129 -5 255 -9 279 -9 24 0 42 -2 39 -5 -3 -3 -116 -25 -252 -49
-231 -41 -266 -49 -255 -60 2 -2 103 14 223 35 121 22 225 38 232 37 7 -2
-136 -61 -317 -132 -297 -117 -363 -146 -330 -146 6 0 167 61 357 136 190 75
347 134 349 132 2 -2 -61 -49 -141 -103 -80 -55 -153 -105 -162 -112 -10 -6
-14 -14 -10 -18 4 -4 70 36 148 90 78 53 144 95 146 92 2 -2 -30 -36 -72 -76
-42 -40 -73 -75 -70 -78 4 -4 35 20 69 53 89 87 141 133 144 130 2 -2 -44
-101 -102 -221 -58 -120 -104 -223 -101 -229 2 -6 57 98 122 232 66 133 122
242 125 242 4 0 14 -26 23 -57 9 -32 21 -65 26 -73 17 -27 12 22 -10 85 -11
32 -20 62 -20 67 0 16 41 7 180 -42 146 -52 160 -55 160 -42 0 4 -64 29 -142
56 -79 27 -147 52 -151 56 -9 7 41 12 383 31 113 7 209 16 215 20 13 12 -25
11 -309 -7 -136 -8 -258 -14 -272 -12 -20 2 -4 15 86 67 95 56 127 81 104 81
-4 0 -60 -32 -126 -71 -100 -59 -122 -69 -133 -57 -7 7 -22 48 -33 92 -12 43
-24 81 -27 84 -15 15 -12 -13 9 -92 20 -71 22 -88 11 -92 -12 -5 -514 253
-539 277 -12 11 -36 12 -36 2z"/>
<path d="M4488 2223 c-63 -39 -61 -123 4 -158 35 -19 38 -19 73 -2 71 34 77
118 11 158 -38 23 -53 23 -88 2z"/>
<path d="M518 1938 c-65 -30 -88 -46 -88 -60 0 -17 4 -17 50 7 27 14 52 25 55
25 10 0 4 -36 -10 -54 -23 -30 -18 -36 25 -36 56 0 52 -21 -10 -50 -27 -13
-50 -27 -50 -31 0 -23 31 -17 115 21 76 34 92 45 88 61 -3 10 -8 18 -12 17
-38 -4 -111 4 -111 14 0 6 14 33 31 59 27 43 32 71 11 68 -4 0 -46 -19 -94
-41z"/>
<path d="M4397 1953 c-14 -13 -6 -20 48 -38 30 -11 55 -24 55 -30 0 -6 -33
-19 -74 -29 -93 -22 -103 -39 -38 -67 123 -54 145 -60 153 -47 12 18 11 28 -3
28 -26 0 -98 33 -98 45 0 8 26 18 66 25 54 10 103 34 92 45 -5 5 -181 75 -188
75 -4 0 -10 -3 -13 -7z"/>
<path d="M4301 1734 c-59 -49 -50 -121 22 -164 38 -24 68 -25 106 -6 76 40 62
146 -25 182 -47 20 -68 17 -103 -12z m113 -48 c39 -37 44 -56 20 -80 -38 -39
-134 6 -134 63 0 60 59 69 114 17z"/>
<path d="M631 1723 c-72 -36 -90 -123 -36 -170 43 -38 120 -22 163 32 49 62 3
156 -76 155 -9 0 -32 -8 -51 -17z m97 -35 c7 -7 12 -27 12 -45 0 -27 -6 -37
-32 -53 -45 -27 -84 -26 -103 4 -13 19 -14 29 -6 44 26 49 101 78 129 50z"/>
<path d="M4197 1576 c-4 -9 23 -33 80 -71 81 -54 87 -56 100 -39 11 15 11 19
-4 28 -10 5 -48 29 -85 53 -73 47 -83 50 -91 29z"/>
<path d="M755 1524 c-33 -25 -69 -52 -80 -60 -14 -10 -16 -17 -8 -25 8 -8 24
-2 60 26 59 45 64 35 33 -62 -13 -41 -18 -69 -12 -75 11 -11 184 110 176 124
-9 14 -25 9 -64 -22 -37 -30 -60 -38 -60 -22 0 5 11 40 24 79 34 100 23 106
-69 37z"/>
<path d="M4128 1475 c-31 -42 -43 -67 -36 -71 6 -4 20 3 30 16 l19 23 27 -20
c107 -79 123 -88 132 -73 5 8 10 17 10 20 -1 3 -30 25 -66 49 -72 49 -83 63
-64 87 8 9 10 18 4 24 -6 6 -27 -15 -56 -55z"/>
<path d="M920 1372 c-49 -22 -90 -73 -90 -110 0 -35 25 -75 57 -94 30 -17 30
-17 63 17 26 27 31 38 22 47 -9 9 -17 7 -35 -10 -30 -28 -43 -28 -62 2 -19 29
-8 64 31 95 43 34 89 26 108 -20 8 -20 16 -25 26 -19 11 7 12 14 2 34 -19 42
-87 74 -122 58z"/>
<path d="M4022 1347 c-8 -10 3 -38 44 -111 51 -88 57 -95 69 -79 9 11 10 22 4
28 -15 15 -10 37 12 61 18 19 26 21 42 13 15 -8 23 -7 35 5 9 8 14 17 11 19
-8 7 -189 77 -198 77 -5 0 -13 -6 -19 -13z m98 -57 c21 -11 17 -40 -6 -40 -12
0 -34 29 -34 44 0 9 19 7 40 -4z"/>
<path d="M1255 1280 c10 -11 20 -20 23 -20 3 0 -3 9 -13 20 -10 11 -20 20 -23
20 -3 0 3 -9 13 -20z"/>
<path d="M3933 1259 c-9 -9 6 -32 60 -91 62 -68 73 -76 85 -64 13 13 6 24 -53
90 -38 42 -71 76 -75 76 -3 0 -11 -5 -17 -11z"/>
<path d="M1029 1203 c-47 -40 -63 -84 -45 -127 24 -59 92 -75 147 -35 63 45
76 114 30 160 -39 39 -87 39 -132 2z m105 -19 c20 -20 20 -63 1 -91 -8 -12
-31 -27 -51 -33 -32 -11 -38 -10 -56 8 -26 26 -18 63 22 103 32 32 61 37 84
13z"/>
<path d="M1350 1206 c0 -2 8 -10 18 -17 15 -13 16 -12 3 4 -13 16 -21 21 -21
13z"/>
<path d="M3858 1191 c-62 -49 -62 -134 0 -176 54 -37 96 -33 141 12 39 39 28
62 -13 24 -44 -41 -117 -16 -132 45 -8 33 11 74 37 81 11 3 18 10 16 16 -6 19
-23 18 -49 -2z"/>
<path d="M1190 1034 c-33 -42 -60 -80 -60 -84 0 -4 18 -21 41 -39 32 -26 43
-31 52 -21 9 9 5 18 -20 37 l-32 25 54 68 c30 38 55 74 55 79 0 29 -36 3 -90
-65z"/>
<path d="M1540 1076 c0 -7 93 -57 98 -52 2 3 -19 16 -47 30 -28 15 -51 24 -51
22z"/>
<path d="M3671 1041 c-25 -23 -31 -37 -31 -69 0 -96 117 -155 178 -89 31 34
36 64 18 111 -29 77 -109 99 -165 47z m105 -35 c53 -53 44 -116 -16 -116 -27
0 -58 27 -79 67 -15 30 -14 40 9 63 28 28 47 25 86 -14z"/>
<path d="M1329 963 c-23 -38 -48 -77 -56 -89 -11 -18 -11 -23 1 -33 11 -10 24
5 71 78 51 82 60 111 35 111 -4 0 -27 -30 -51 -67z"/>
<path d="M1657 1009 c7 -7 15 -10 18 -7 3 3 -2 9 -12 12 -14 6 -15 5 -6 -5z"/>
<path d="M3560 973 c-31 -11 -60 -47 -60 -74 0 -37 24 -54 76 -51 39 1 44 -1
50 -23 8 -31 -2 -45 -32 -45 -18 0 -24 -5 -24 -21 0 -16 4 -19 23 -14 41 12
72 41 75 71 5 46 -19 68 -71 69 -54 0 -77 16 -57 40 7 8 21 15 31 15 12 0 19
7 19 20 0 21 -4 22 -30 13z"/>
<path d="M1406 886 c-51 -47 -77 -77 -72 -85 6 -9 13 -8 27 5 18 17 21 17 55
0 30 -14 35 -21 31 -42 -3 -17 1 -28 14 -34 21 -12 22 -10 44 119 13 76 13 96
3 103 -19 12 -17 13 -102 -66z m64 -3 c-1 -25 -14 -53 -26 -53 -22 0 -27 20
-8 41 17 19 34 25 34 12z"/>
<path d="M3393 880 c-69 -41 -48 -110 33 -110 38 0 44 -3 50 -24 8 -34 -2 -46
-37 -46 -23 0 -29 -4 -29 -21 0 -15 4 -19 16 -15 9 3 22 6 30 6 23 0 64 47 64
73 0 38 -22 57 -75 65 -61 9 -74 36 -26 55 17 6 31 17 31 24 0 18 -20 16 -57
-7z"/>
<path d="M1561 794 c-23 -53 -40 -98 -37 -101 13 -14 35 10 52 56 10 28 21 51
26 51 8 0 24 -54 34 -117 11 -70 31 -63 71 25 53 115 54 120 38 126 -10 4 -21
-10 -36 -44 -26 -60 -46 -64 -54 -12 -13 74 -26 112 -38 112 -7 0 -32 -43 -56
-96z"/>
<path d="M3233 813 c-9 -3 -13 -37 -13 -118 0 -108 1 -113 20 -108 14 4 20 14
20 32 0 21 7 29 33 39 28 11 34 10 47 -6 12 -15 21 -17 40 -10 14 5 20 12 15
16 -6 4 -39 42 -75 85 -35 42 -67 77 -70 76 -3 0 -11 -3 -17 -6z m63 -122 c-4
-6 -16 -11 -27 -11 -15 0 -19 7 -19 37 l0 38 26 -27 c15 -14 23 -31 20 -37z"/>
<path d="M1840 777 c0 -8 9 -17 20 -20 25 -6 25 -24 0 -112 -15 -53 -17 -71
-7 -77 20 -13 22 -10 36 40 35 124 34 121 65 124 48 5 40 23 -16 36 -29 7 -63
15 -75 18 -17 5 -23 2 -23 -9z"/>
<path d="M3014 695 c-10 -30 -23 -55 -29 -55 -6 0 -29 18 -50 40 -36 37 -65
51 -65 32 0 -5 9 -51 20 -102 11 -51 20 -97 20 -101 0 -5 7 -6 15 -3 18 7 19
39 4 83 -15 43 -4 50 29 18 37 -36 48 -34 56 9 4 20 12 34 19 31 12 -4 38 -93
29 -101 -3 -4 7 -6 22 -6 21 0 27 4 22 15 -3 8 -13 55 -23 105 -14 71 -22 90
-35 90 -12 0 -22 -17 -34 -55z"/>
<path d="M2044 730 c-40 -16 -74 -68 -74 -114 0 -112 130 -144 181 -45 35 70
18 128 -47 155 -18 8 -35 14 -36 13 -2 0 -12 -4 -24 -9z m64 -42 c17 -17 15
-89 -4 -116 -20 -29 -69 -30 -85 -1 -14 27 -5 86 17 110 19 22 54 25 72 7z"/>
<path d="M2751 694 c-56 -24 -50 -99 10 -111 65 -13 57 -78 -8 -71 -27 3 -33
0 -33 -14 0 -29 74 -25 105 7 42 42 31 79 -32 106 -55 23 -56 51 -4 59 19 3
36 10 38 16 6 18 -42 22 -76 8z"/>
<path d="M2206 663 c-21 -129 1 -183 74 -183 59 0 75 22 89 120 13 85 11 96
-12 87 -10 -4 -17 -30 -22 -79 -8 -81 -17 -98 -50 -98 -40 0 -49 23 -42 110 6
73 5 80 -12 80 -13 0 -20 -10 -25 -37z"/>
<path d="M2436 678 c-3 -7 -6 -57 -9 -110 -4 -90 -3 -98 14 -98 14 0 19 7 19
28 1 64 37 65 65 1 17 -38 37 -50 50 -29 3 5 -4 28 -17 51 -18 32 -20 43 -10
46 40 15 32 99 -10 107 -75 16 -98 16 -102 4z m89 -63 c0 -22 -5 -31 -20 -34
-11 -2 -23 -8 -27 -15 -4 -6 -8 11 -8 37 0 47 1 48 28 45 23 -2 27 -8 27 -33z"/>
<path d="M2625 583 c4 -60 8 -109 10 -111 1 -1 10 0 19 4 18 7 21 48 10 153
-6 52 -10 61 -27 61 -19 0 -19 -5 -12 -107z"/>
<path d="M1801 231 c-26 -26 -17 -60 18 -67 14 -3 36 -7 49 -10 19 -4 23 -10
20 -32 -2 -21 -9 -28 -31 -30 -17 -2 -37 4 -48 14 -20 18 -36 14 -24 -6 23
-37 110 -32 128 7 16 36 -2 56 -59 69 -38 8 -49 14 -49 30 0 15 8 20 39 22 24
2 42 -2 47 -10 4 -7 12 -9 16 -4 12 12 -27 36 -59 36 -15 0 -37 -9 -47 -19z"/>
<path d="M1950 166 c0 -71 3 -86 15 -86 13 0 15 14 13 82 -2 54 -7 83 -15 86
-10 3 -13 -18 -13 -82z"/>
<path d="M2020 165 c0 -107 18 -113 22 -7 l3 77 40 -77 c32 -62 45 -78 63 -78
21 0 22 3 20 88 l-2 87 -3 -77 c-3 -53 -8 -78 -16 -78 -7 1 -27 34 -46 75 -28
62 -38 75 -58 75 -22 0 -23 -3 -23 -85z"/>
<path d="M2243 235 c-19 -14 -23 -25 -23 -75 0 -48 4 -61 19 -70 29 -15 87
-12 105 6 20 20 20 34 1 34 -8 0 -15 -7 -15 -15 0 -19 -48 -31 -69 -18 -17 11
-26 71 -17 110 5 18 13 23 41 23 21 0 37 -6 43 -16 5 -9 15 -15 21 -13 9 3 8
9 -1 22 -19 25 -78 32 -105 12z"/>
<path d="M2390 165 l0 -85 58 2 57 1 -45 6 c-42 6 -45 8 -48 38 -3 31 -2 32
45 36 l48 3 -47 2 c-46 2 -48 3 -48 32 0 29 2 30 45 30 25 0 45 5 45 10 0 6
-25 10 -55 10 l-55 0 0 -85z"/>
<path d="M2634 218 c-23 -27 -24 -29 -3 -10 14 12 28 22 32 22 4 0 7 -34 7
-75 0 -43 4 -75 10 -75 6 0 10 35 10 85 0 97 -8 105 -56 53z"/>
<path d="M2785 234 c-10 -10 -15 -29 -13 -48 3 -27 7 -31 37 -34 18 -2 39 2
45 9 8 9 8 10 -2 5 -7 -5 -24 -5 -38 -2 -20 5 -25 12 -22 34 3 24 7 27 38 27
l35 0 0 -65 0 -65 -33 -3 c-22 -2 -34 2 -38 12 -8 20 -24 21 -24 2 0 -34 91
-37 114 -4 23 33 21 103 -4 128 -24 24 -73 26 -95 4z"/>
<path d="M2956 234 c-17 -16 -20 -41 -10 -68 7 -17 69 -23 78 -7 3 4 -5 6 -17
4 -27 -5 -50 18 -45 44 2 13 13 18 38 18 l35 0 0 -65 c0 -65 0 -65 -30 -68
-19 -3 -33 2 -42 14 -7 10 -16 15 -19 11 -14 -14 20 -37 55 -37 53 0 64 11 69
73 4 46 1 58 -17 76 -25 25 -73 28 -95 5z"/>
<path d="M3127 232 c-19 -21 -22 -32 -7 -32 6 0 10 7 10 15 0 20 43 29 69 15
21 -11 27 -36 13 -56 -4 -6 -24 -14 -44 -18 -37 -7 -58 -29 -58 -60 0 -13 12
-16 68 -14 l67 1 -55 6 c-46 5 -55 9 -55 26 0 15 10 22 44 31 47 11 64 34 54
72 -9 35 -79 44 -106 14z"/>
</g>
</svg>
