<svg xmlns="http://www.w3.org/2000/svg" viewBox="0 0 215.6 215.45"><title>Asset 4</title><polyline points="4 107.6 48.48 107.6 48.48 169.69 4 169.69" fill="none" stroke="#ed1651" stroke-linecap="round" stroke-linejoin="round" stroke-width="8"/><path d="M135.46,64.12a40.57,40.57,0,1,1,35.56,21" fill="none" stroke="#ed1651" stroke-linecap="round" stroke-linejoin="round" stroke-width="8"/><rect x="101.41" y="71.56" width="81.15" height="44.42" transform="translate(67.4 -59.17) rotate(30.56)" stroke-width="8" stroke="#ed1651" stroke-linecap="round" stroke-linejoin="round" fill="none"/><polyline points="105.08 186.51 88.05 211.45 64.98 197.82 76.98 174.06" fill="none" stroke="#ed1651" stroke-linecap="round" stroke-linejoin="round" stroke-width="8"/><line x1="148.25" y1="123.26" x2="137.06" y2="139.66" fill="none" stroke="#ed1651" stroke-linecap="round" stroke-linejoin="round" stroke-width="8"/><line x1="106.37" y1="115.88" x2="113.12" y2="102.52" fill="none" stroke="#ed1651" stroke-linecap="round" stroke-linejoin="round" stroke-width="8"/><path d="M48.48,113.54c27.6,0,51.18-6.27,61.75-5.28" fill="none" stroke="#ed1651" stroke-linecap="round" stroke-linejoin="round" stroke-width="8"/><path d="M106.37,115.88c-3.31,6.56,27.17,21.8,33.28,25.79,7.74,5.05,4.3,17.33-5.82,14.71,0,0,3.73,4.8.15,8.67s-8.52,1.25-8.52,1.25,3.72,5.3,0,9a7.07,7.07,0,0,1-8.24,1.21s4.22,4.77.39,8.78-12.39,1.53-15.88,0S75.64,173.6,71.64,171.47c-15.33-8.17-15.85-16.1-23.16-16.14" fill="none" stroke="#ed1651" stroke-linecap="round" stroke-linejoin="round" stroke-width="8"/><line x1="27.2" y1="146.54" x2="27.2" y2="154.85" fill="none" stroke="#ed1651" stroke-linecap="round" stroke-linejoin="round" stroke-width="8"/></svg>