<svg xmlns="http://www.w3.org/2000/svg" viewBox="0 0 215.45 215.45"><title>Asset 6</title><polyline points="4 183.33 4 211.45 211.45 211.45 211.45 183.33" fill="none" stroke="#ed1651" stroke-linecap="round" stroke-linejoin="round" stroke-width="8"/><line x1="65.9" y1="195.29" x2="65.9" y2="85.85" fill="none" stroke="#ed1651" stroke-linecap="round" stroke-linejoin="round" stroke-width="8"/><line x1="65.9" y1="135.25" x2="84.95" y2="120.65" fill="none" stroke="#ed1651" stroke-linecap="round" stroke-linejoin="round" stroke-width="8"/><line x1="65.9" y1="115.89" x2="50.85" y2="101.3" fill="none" stroke="#ed1651" stroke-linecap="round" stroke-linejoin="round" stroke-width="8"/><path d="M88.19,86.3A26.84,26.84,0,1,0,38.07,72.94c0,.47,0,.93.07,1.4a25.12,25.12,0,0,0-7.47,46.46,37.19,37.19,0,0,0,34.25,51.61l1,0v0A45.94,45.94,0,0,0,88.19,86.3Z" fill="none" stroke="#ed1651" stroke-linecap="round" stroke-linejoin="round" stroke-width="8"/><circle cx="168.29" cy="53.84" r="19.84" fill="none" stroke="#ed1651" stroke-linecap="round" stroke-linejoin="round" stroke-width="8"/><line x1="168.29" y1="4" x2="168.29" y2="15.52" fill="none" stroke="#ed1651" stroke-linecap="round" stroke-linejoin="round" stroke-width="8"/><line x1="168.29" y1="92.15" x2="168.29" y2="103.67" fill="none" stroke="#ed1651" stroke-linecap="round" stroke-linejoin="round" stroke-width="8"/><line x1="125.13" y1="28.92" x2="135.11" y2="34.68" fill="none" stroke="#ed1651" stroke-linecap="round" stroke-linejoin="round" stroke-width="8"/><line x1="201.47" y1="72.99" x2="211.45" y2="78.75" fill="none" stroke="#ed1651" stroke-linecap="round" stroke-linejoin="round" stroke-width="8"/><line x1="211.45" y1="28.92" x2="201.47" y2="34.68" fill="none" stroke="#ed1651" stroke-linecap="round" stroke-linejoin="round" stroke-width="8"/><line x1="135.11" y1="72.99" x2="125.13" y2="78.75" fill="none" stroke="#ed1651" stroke-linecap="round" stroke-linejoin="round" stroke-width="8"/></svg>