<svg xmlns="http://www.w3.org/2000/svg" viewBox="0 0 215.45 215.45"><title>Asset 2</title><polyline points="211.45 98.98 174.98 98.98 174.98 177.56 211.45 177.56" fill="none" stroke="#ed1651" stroke-linecap="round" stroke-linejoin="round" stroke-width="8"/><polyline points="4 98.98 40.47 98.98 40.47 177.56 4 177.56" fill="none" stroke="#ed1651" stroke-linecap="round" stroke-linejoin="round" stroke-width="8"/><path d="M175,106.79s-8.88.17-24.82-5.77-23.52-12.24-32.4-12.84S103.11,86.8,95.1,92.31s-28.95,22.92-28.95,22.92.95,7.76,10.34,8.19,13.61-1.72,26.71-12.24c17.92,18.79,43.61,48.65,49.8,55.39,7.88,8.58-4.3,17.68-11.46,10-7.36-7.89-17.92-18.87-17.92-18.87" fill="none" stroke="#ed1651" stroke-linecap="round" stroke-linejoin="round" stroke-width="8"/><path d="M139,173.84c8.69,9.47-4.41,19.56-12.31,11.1-8.11-8.7-19.76-20.81-19.76-20.81" fill="none" stroke="#ed1651" stroke-linecap="round" stroke-linejoin="round" stroke-width="8"/><path d="M120.91,178.81c8.18,8.91-4.23,18.45-11.66,10.49-7.65-8.2-21-21.91-21-21.91" fill="none" stroke="#ed1651" stroke-linecap="round" stroke-linejoin="round" stroke-width="8"/><path d="M104.32,184.08c8.38,8.74-2.22,17.9-10.6,10.93-8.61-7.17-40.15-32.16-40.15-32.16H40.47" fill="none" stroke="#ed1651" stroke-linecap="round" stroke-linejoin="round" stroke-width="8"/><line x1="155.28" y1="170.43" x2="174.98" y2="165.55" fill="none" stroke="#ed1651" stroke-linecap="round" stroke-linejoin="round" stroke-width="8"/><line x1="40.47" y1="107.39" x2="75.47" y2="107.39" fill="none" stroke="#ed1651" stroke-linecap="round" stroke-linejoin="round" stroke-width="8"/><line x1="16.35" y1="155.7" x2="16.35" y2="162.85" fill="none" stroke="#ed1651" stroke-linecap="round" stroke-linejoin="round" stroke-width="8"/><line x1="199.1" y1="155.7" x2="199.1" y2="162.85" fill="none" stroke="#ed1651" stroke-linecap="round" stroke-linejoin="round" stroke-width="8"/><polyline points="190.03 177.56 190.03 211.45 25.42 211.45 25.42 177.56" fill="none" stroke="#ed1651" stroke-linecap="round" stroke-linejoin="round" stroke-width="8"/><polyline points="25.42 98.98 25.42 4 190.03 4 190.03 98.98" fill="none" stroke="#ed1651" stroke-linecap="round" stroke-linejoin="round" stroke-width="8"/><line x1="65.2" y1="35.13" x2="150.25" y2="35.13" fill="none" stroke="#ed1651" stroke-linecap="round" stroke-linejoin="round" stroke-width="8"/><line x1="83.81" y1="49.59" x2="131.64" y2="49.59" fill="none" stroke="#ed1651" stroke-linecap="round" stroke-linejoin="round" stroke-width="8"/></svg>