<svg xmlns="http://www.w3.org/2000/svg" viewBox="0 0 215.45 215.45"><title>Asset 11</title><path d="M124.29,15.93a48.88,48.88,0,0,1,32.29,46" fill="none" stroke="#ed1651" stroke-linecap="round" stroke-linejoin="round" stroke-width="8"/><path d="M58.87,61.91A48.87,48.87,0,0,1,92,15.64" fill="none" stroke="#ed1651" stroke-linecap="round" stroke-linejoin="round" stroke-width="8"/><path d="M75.43,124.61s-17,13.18-56.17,20.2C5.53,182.33,4,211.45,4,211.45" fill="none" stroke="#ed1651" stroke-linecap="round" stroke-linejoin="round" stroke-width="8"/><line x1="47.08" y1="61.91" x2="168.37" y2="61.91" fill="none" stroke="#ed1651" stroke-linecap="round" stroke-linejoin="round" stroke-width="8"/><circle cx="107.72" cy="20.44" r="16.44" fill="none" stroke="#ed1651" stroke-linecap="round" stroke-linejoin="round" stroke-width="8"/><path d="M65.09,61.91a44.11,44.11,0,0,0-1,9.47,43.67,43.67,0,1,0,87.33,0,44.11,44.11,0,0,0-1-9.47" fill="none" stroke="#ed1651" stroke-linecap="round" stroke-linejoin="round" stroke-width="8"/><polyline points="98.66 140.68 101.5 148.51 93.38 202.31" fill="none" stroke="#ed1651" stroke-linecap="round" stroke-linejoin="round" stroke-width="8"/><path d="M75.43,124.61c0,32.32,21.32,86.84,21.32,86.84" fill="none" stroke="#ed1651" stroke-linecap="round" stroke-linejoin="round" stroke-width="8"/><path d="M140,124.61s17,13.18,56.17,20.2c13.73,37.52,15.26,66.64,15.26,66.64" fill="none" stroke="#ed1651" stroke-linecap="round" stroke-linejoin="round" stroke-width="8"/><polyline points="116.79 140.68 113.95 148.51 122.07 202.31" fill="none" stroke="#ed1651" stroke-linecap="round" stroke-linejoin="round" stroke-width="8"/><path d="M140,124.61c0,32.32-21.32,86.84-21.32,86.84" fill="none" stroke="#ed1651" stroke-linecap="round" stroke-linejoin="round" stroke-width="8"/><line x1="174.81" y1="192.69" x2="151.02" y2="197.61" fill="none" stroke="#ed1651" stroke-linecap="round" stroke-linejoin="round" stroke-width="8"/></svg>