<svg xmlns="http://www.w3.org/2000/svg" viewBox="0 0 215.45 215.45"><title>Asset 12</title><path d="M124.29,15.93a48.88,48.88,0,0,1,32.29,46" fill="none" stroke="#ed1651" stroke-linecap="round" stroke-linejoin="round" stroke-width="8"/><path d="M58.87,61.91A48.87,48.87,0,0,1,92,15.64" fill="none" stroke="#ed1651" stroke-linecap="round" stroke-linejoin="round" stroke-width="8"/><line x1="47.08" y1="61.91" x2="168.37" y2="61.91" fill="none" stroke="#ed1651" stroke-linecap="round" stroke-linejoin="round" stroke-width="8"/><circle cx="107.72" cy="20.44" r="16.44" fill="none" stroke="#ed1651" stroke-linecap="round" stroke-linejoin="round" stroke-width="8"/><path d="M65.09,61.91a44.11,44.11,0,0,0-1,9.47,43.67,43.67,0,1,0,87.33,0,44.11,44.11,0,0,0-1-9.47" fill="none" stroke="#ed1651" stroke-linecap="round" stroke-linejoin="round" stroke-width="8"/><path d="M91.13,156.8l6.05-18.2L78.47,120.74,69.4,132.08s-31,9.73-44.43,13.23C8.14,149.69,4,172.9,4,211.45" fill="none" stroke="#ed1651" stroke-linecap="round" stroke-linejoin="round" stroke-width="8"/><path d="M124.32,156.8l-6-18.2L137,120.74l9.07,11.34s31,9.73,44.43,13.23c16.83,4.38,21,27.59,21,66.14" fill="none" stroke="#ed1651" stroke-linecap="round" stroke-linejoin="round" stroke-width="8"/><line x1="107.72" y1="211.45" x2="107.72" y2="155.23" fill="none" stroke="#ed1651" stroke-linecap="round" stroke-linejoin="round" stroke-width="8"/><path d="M185.54,195.15s-22.19,9-77.82,9-77.81-9-77.81-9" fill="none" stroke="#ed1651" stroke-linecap="round" stroke-linejoin="round" stroke-width="8"/><line x1="142.31" y1="188.32" x2="160.46" y2="185.48" fill="none" stroke="#ed1651" stroke-linecap="round" stroke-linejoin="round" stroke-width="8"/></svg>