<svg xmlns="http://www.w3.org/2000/svg" viewBox="0 0 215.45 214.36"><title>Asset 10</title><path d="M89.87,170.42A13.11,13.11,0,0,1,76.76,157.3v-2.6a13.11,13.11,0,0,1,13.11-13.11H193.05a13.11,13.11,0,0,1,13.11,13.11v2.6a13.4,13.4,0,0,1-.39,3.19" fill="none" stroke="#ed1651" stroke-linecap="round" stroke-linejoin="round" stroke-width="8"/><polyline points="138.23 105.72 138.23 75.22 104.95 75.22 93.5 93.34 93.5 126.72 190.79 126.72 190.79 103.72 182.26 95.19 138.23 95.19" fill="none" stroke="#ed1651" stroke-linecap="round" stroke-linejoin="round" stroke-width="8"/><path d="M158.16,95.19,152.66,75a40.23,40.23,0,0,0-22.93-26.43L68,22" fill="none" stroke="#ed1651" stroke-linecap="round" stroke-linejoin="round" stroke-width="8"/><path d="M66.89,21.57l4.85-7.29A6.61,6.61,0,0,0,70,5.2h0a6.61,6.61,0,0,0-6.65-.55L52.77,9.72a21.2,21.2,0,0,0-9.92,9.85L13,82.61" fill="none" stroke="#ed1651" stroke-linecap="round" stroke-linejoin="round" stroke-width="8"/><path d="M12,84.34S2.44,94.66,7.31,107.78,28.72,124.3,28.72,124.3l17.78-5.5" fill="none" stroke="#ed1651" stroke-linecap="round" stroke-linejoin="round" stroke-width="8"/><polyline points="46.5 118.8 35.56 111.97 26.89 88.61 61.02 36.04 107.61 62.29" fill="none" stroke="#ed1651" stroke-linecap="round" stroke-linejoin="round" stroke-width="8"/><line x1="4" y1="210.36" x2="211.45" y2="210.36" fill="none" stroke="#ed1651" stroke-linecap="round" stroke-linejoin="round" stroke-width="8"/><path d="M4,162s4-12.71,7.87-14.92,11.42-8.47,14.74-6.81,5.89,1.66,8.1,5.89,3,3.13,8.22,8.29,7.06,3.87,10.38,9,12.52,7.92,17.12,8.66,14.18,2.57,20.81-1.75,14.92-4.78,18.51-2.39,9.12,2.76,10.78,3.59,7.73-2.21,12.15-2.49,13.81-.28,13.81-.28,10.45,4.26,12.69,4.34,14.66-2.77,14.66-2.77,17.68-8.2,21-8.2,11.33-.82,16.39.19" fill="none" stroke="#ed1651" stroke-linecap="round" stroke-linejoin="round" stroke-width="8"/></svg>