<svg xmlns="http://www.w3.org/2000/svg" viewBox="0 0 445.38 408.18"><title>Asset 2asdfad</title><path d="M419.61,356.43a11.7,11.7,0,0,1-8.8-3.6q-3.46-3.6-3.46-9.64t3.46-9.65a11.69,11.69,0,0,1,8.8-3.59,11.57,11.57,0,0,1,8.71,3.59q3.46,3.6,3.46,9.65t-3.46,9.64a11.58,11.58,0,0,1-8.71,3.6m11.91-55.28v23.2q-5.16-5.78-14.31-5.78a24.9,24.9,0,0,0-12.22,3,21.67,21.67,0,0,0-8.57,8.62,28.62,28.62,0,0,0,0,26,21.61,21.61,0,0,0,8.57,8.62,24.79,24.79,0,0,0,12.22,3q9.78,0,14.93-6.22v5.51h13.24V301.15ZM367,318.57a24,24,0,0,0-9,1.64,18.55,18.55,0,0,0-6.84,4.67v-5.6H337.91v47.81h13.86V343.45q0-6.39,3.11-9.64a11.06,11.06,0,0,1,8.36-3.24c3.14,0,5.53.93,7.19,2.8s2.49,4.69,2.49,8.48v25.24h13.86V339.72q0-10.49-5.46-15.82T367,318.57m-53,48.52h13.86V319.28H314ZM285.1,318.57a23.43,23.43,0,0,0-9.82,2,19.65,19.65,0,0,0-7.42,5.78,16.16,16.16,0,0,0-6.58-5.82,20.59,20.59,0,0,0-9.15-2,22,22,0,0,0-8.49,1.6,17.58,17.58,0,0,0-6.53,4.62v-5.51H223.87v47.81h13.86v-24q0-6.23,2.84-9.38a9.81,9.81,0,0,1,7.65-3.15q9.06,0,9.06,11.28v25.24h13.86v-24q0-6.23,2.85-9.38a9.88,9.88,0,0,1,7.73-3.15,8.27,8.27,0,0,1,6.71,2.8q2.35,2.79,2.35,8.48v25.24h13.87V339.72q0-10.58-5.29-15.86t-14.26-5.29m-82.73,7v-6.31H189.13v47.81H203V344.52q0-6.66,3.38-10t9.33-3.33c.53,0,1.57.06,3.11.18v-12.8a24.8,24.8,0,0,0-9.73,1.78,15.41,15.41,0,0,0-6.71,5.24m-46.14,30.84a11.68,11.68,0,0,1-8.79-3.6q-3.47-3.6-3.47-9.64t3.47-9.65a11.67,11.67,0,0,1,8.79-3.59,11.54,11.54,0,0,1,8.76,3.59c2.27,2.4,3.42,5.62,3.42,9.65s-1.15,7.24-3.42,9.64a11.55,11.55,0,0,1-8.76,3.6m0,11.37a28.44,28.44,0,0,0,13.51-3.15,23.45,23.45,0,0,0,9.33-8.76,25.57,25.57,0,0,0,0-25.41,23.59,23.59,0,0,0-9.33-8.76,30.63,30.63,0,0,0-27.06,0,23.59,23.59,0,0,0-9.38,8.76,25.63,25.63,0,0,0,0,25.41,23.46,23.46,0,0,0,9.38,8.76,28.71,28.71,0,0,0,13.55,3.15m-47-.71H123V301.15H109.18Zm-33-10.66a11.68,11.68,0,0,1-8.8-3.6q-3.47-3.6-3.47-9.64t3.47-9.65a11.68,11.68,0,0,1,8.8-3.59,11.54,11.54,0,0,1,8.75,3.59q3.42,3.6,3.42,9.65t-3.42,9.64a11.54,11.54,0,0,1-8.75,3.6m0,11.37a28.43,28.43,0,0,0,13.5-3.15A23.45,23.45,0,0,0,99,355.89a25.57,25.57,0,0,0,0-25.41,23.59,23.59,0,0,0-9.33-8.76,28.43,28.43,0,0,0-13.5-3.15,28.73,28.73,0,0,0-13.56,3.15,23.57,23.57,0,0,0-9.37,8.76,25.57,25.57,0,0,0,0,25.41,23.43,23.43,0,0,0,9.37,8.76,28.73,28.73,0,0,0,13.56,3.15m-49.51,0a26.38,26.38,0,0,0,13.2-3.2,19.09,19.09,0,0,0,8.22-8.88l-10.76-5.87q-3.65,6.58-10.75,6.58a12.19,12.19,0,0,1-9-3.56q-3.54-3.56-3.55-9.68t3.55-9.69a12.18,12.18,0,0,1,9-3.55q7,0,10.75,6.57l10.76-5.77a18.78,18.78,0,0,0-8.22-9,26.68,26.68,0,0,0-13.2-3.15,29.42,29.42,0,0,0-13.73,3.15,23.69,23.69,0,0,0-9.51,8.76,25.31,25.31,0,0,0,0,25.41,23.55,23.55,0,0,0,9.51,8.76,29.42,29.42,0,0,0,13.73,3.15" fill="#0a0203"/><path d="M366.43,399.8a6.24,6.24,0,0,1-3-.73,5.22,5.22,0,0,1-2.11-2,6.18,6.18,0,0,1,0-5.94,5.07,5.07,0,0,1,2.11-2,6.35,6.35,0,0,1,3-.72,6.46,6.46,0,0,1,3.08.73,5.4,5.4,0,0,1,2.11,2,5.79,5.79,0,0,1,.75,3,5.85,5.85,0,0,1-.75,3,5.27,5.27,0,0,1-2.13,2,6.35,6.35,0,0,1-3.06.73m6-13.16v3a6.48,6.48,0,0,0-2.58-2.32,8,8,0,0,0-3.59-.8,8.46,8.46,0,0,0-4,1,7.15,7.15,0,0,0-2.8,2.68,7.43,7.43,0,0,0-1,3.92,7.54,7.54,0,0,0,1,3.93,7.14,7.14,0,0,0,2.82,2.71,8.36,8.36,0,0,0,4,1,8,8,0,0,0,3.52-.77,6.44,6.44,0,0,0,2.57-2.26v2a5.81,5.81,0,0,1-1.4,4.29,6,6,0,0,1-4.37,1.38,10.15,10.15,0,0,1-3.4-.56,8.11,8.11,0,0,1-2.75-1.57l-1.07,1.6a8.63,8.63,0,0,0,3.17,1.77,13.24,13.24,0,0,0,4.11.64c2.62,0,4.57-.64,5.87-1.92s1.94-3.24,1.94-5.9V386.64ZM348,386.52a7.65,7.65,0,0,0-3.56.79,5.86,5.86,0,0,0-2.39,2.21v-2.88h-2v15.63h2.11v-8.2a5.67,5.67,0,0,1,1.47-4.15,5.35,5.35,0,0,1,4-1.5,4.57,4.57,0,0,1,3.47,1.28,5.14,5.14,0,0,1,1.22,3.71v8.86h2.11v-9.06a6.68,6.68,0,0,0-1.74-5,6.35,6.35,0,0,0-4.67-1.71m-15.54,15.75h2.11V386.64h-2.11ZM319,399.8a6.24,6.24,0,0,1-3-.73,5.16,5.16,0,0,1-2.11-2,6.18,6.18,0,0,1,0-5.94,5,5,0,0,1,2.11-2,6.35,6.35,0,0,1,3-.72,6.49,6.49,0,0,1,3.08.73,5.3,5.3,0,0,1,2.1,2,5.7,5.7,0,0,1,.76,3,5.76,5.76,0,0,1-.76,3,5.19,5.19,0,0,1-2.12,2,6.35,6.35,0,0,1-3.06.73m6-13.16v3a6.48,6.48,0,0,0-2.58-2.32,8,8,0,0,0-3.6-.8,8.45,8.45,0,0,0-4,1,7.08,7.08,0,0,0-2.8,2.68,7.43,7.43,0,0,0-1,3.92,7.54,7.54,0,0,0,1,3.93,7.14,7.14,0,0,0,2.82,2.71,8.34,8.34,0,0,0,4,1,8,8,0,0,0,3.52-.77,6.38,6.38,0,0,0,2.57-2.26v2a5.81,5.81,0,0,1-1.39,4.29,6,6,0,0,1-4.37,1.38,10.15,10.15,0,0,1-3.4-.56,8.11,8.11,0,0,1-2.75-1.57l-1.07,1.6a8.58,8.58,0,0,0,3.16,1.77,13.31,13.31,0,0,0,4.12.64c2.61,0,4.57-.64,5.86-1.92s1.95-3.24,1.95-5.9V386.64Zm-25.09,14.11a4.68,4.68,0,0,1-2.91-.79,2.53,2.53,0,0,1-1-2.15c0-1.86,1.33-2.79,4-2.79h4.9v2.55a4.88,4.88,0,0,1-1.9,2.36,5.51,5.51,0,0,1-3.06.82m.74-14.23a11.31,11.31,0,0,0-3.51.55,8.51,8.51,0,0,0-2.85,1.56l1,1.58a7.25,7.25,0,0,1,2.35-1.36,8.54,8.54,0,0,1,2.85-.49,4.63,4.63,0,0,1,3.3,1.06,4,4,0,0,1,1.13,3.07v.95h-5a7.06,7.06,0,0,0-4.59,1.22,4,4,0,0,0-1.44,3.21,4,4,0,0,0,1.54,3.3,6.44,6.44,0,0,0,4.16,1.24,7.25,7.25,0,0,0,3.28-.68,4.92,4.92,0,0,0,2.1-1.9v2.44h2v-9.69a5.91,5.91,0,0,0-1.64-4.53,6.61,6.61,0,0,0-4.69-1.53m-11,15.75h2.58L284.86,393l6.69-6.39h-2.62l-9.32,8.53V380.22H277.5v22h2.11v-4.46l3.68-3.39Zm-22.07.14a8.13,8.13,0,0,0,3.6-.78,6,6,0,0,0,2.52-2.31l-1.57-1.07a4.85,4.85,0,0,1-2,1.73,6.37,6.37,0,0,1-5.63-.2,5.28,5.28,0,0,1-2.11-2.13,7.07,7.07,0,0,1,0-6.38,5.33,5.33,0,0,1,2.11-2.15,6.15,6.15,0,0,1,3-.76,6,6,0,0,1,2.59.58,5,5,0,0,1,2,1.74l1.57-1.07a5.93,5.93,0,0,0-2.51-2.3,8,8,0,0,0-3.61-.79,8.46,8.46,0,0,0-4.14,1,7.48,7.48,0,0,0-2.87,2.82,8.64,8.64,0,0,0,0,8.22,7.36,7.36,0,0,0,2.87,2.83,8.35,8.35,0,0,0,4.14,1m-19.18-1.66a4.72,4.72,0,0,1-2.91-.79,2.55,2.55,0,0,1-1-2.15q0-2.79,4-2.79h4.9v2.55a4.88,4.88,0,0,1-1.9,2.36,5.57,5.57,0,0,1-3.07.82m.75-14.23a11.31,11.31,0,0,0-3.51.55,8.51,8.51,0,0,0-2.85,1.56l1,1.58a7.25,7.25,0,0,1,2.35-1.36,8.54,8.54,0,0,1,2.85-.49,4.64,4.64,0,0,1,3.3,1.06,4,4,0,0,1,1.13,3.07v.95h-5a7,7,0,0,0-4.58,1.22,4,4,0,0,0-1.44,3.21,4,4,0,0,0,1.54,3.3,6.44,6.44,0,0,0,4.16,1.24,7.25,7.25,0,0,0,3.28-.68,4.92,4.92,0,0,0,2.1-1.9v2.44h2v-9.69a5.91,5.91,0,0,0-1.64-4.53,6.61,6.61,0,0,0-4.69-1.53m-17.65,14a5.83,5.83,0,0,1-3-.76,5.39,5.39,0,0,1-2.08-2.15,6.61,6.61,0,0,1-.76-3.18,6.51,6.51,0,0,1,.76-3.16,5.52,5.52,0,0,1,2.08-2.15,6.06,6.06,0,0,1,6,0,5.37,5.37,0,0,1,2.1,2.15,6.51,6.51,0,0,1,.76,3.16,6.61,6.61,0,0,1-.76,3.18,5.24,5.24,0,0,1-2.1,2.15,5.85,5.85,0,0,1-3,.76m.14-14a7.43,7.43,0,0,0-3.52.83,6.59,6.59,0,0,0-2.51,2.38v-3.09h-2V408h2.11v-8.71a6.61,6.61,0,0,0,2.51,2.31,7.43,7.43,0,0,0,3.43.78,8,8,0,0,0,4-1,7.16,7.16,0,0,0,2.78-2.81,9,9,0,0,0,0-8.29,7.18,7.18,0,0,0-2.8-2.8,8,8,0,0,0-4-1m-29.49,14.17a6,6,0,0,1-3.64-1,3.23,3.23,0,0,1-1.38-2.72,3.9,3.9,0,0,1,.93-2.53,12.81,12.81,0,0,1,3.4-2.52l6.27,6.45a7.22,7.22,0,0,1-5.58,2.34m.77-17.79a3.32,3.32,0,0,1,2.23.69,2.4,2.4,0,0,1,.8,1.89,2.9,2.9,0,0,1-.86,2,14.75,14.75,0,0,1-3.12,2.23,12.17,12.17,0,0,1-1.87-2.26,3.44,3.44,0,0,1-.48-1.75,2.58,2.58,0,0,1,.88-2.05,3.5,3.5,0,0,1,2.42-.77M213,401.2l-3-3.06a14,14,0,0,0,1.84-4.79l-1.72-.53a13.51,13.51,0,0,1-1.4,4l-5.7-5.88a14,14,0,0,0,3.59-2.72,4.21,4.21,0,0,0,1-2.78,3.72,3.72,0,0,0-1.31-3,5.31,5.31,0,0,0-3.53-1.1,5.7,5.7,0,0,0-3.83,1.22,4,4,0,0,0-1.43,3.21,4.87,4.87,0,0,0,.57,2.3,12,12,0,0,0,2.05,2.63,14.19,14.19,0,0,0-4,3.12,5.19,5.19,0,0,0-1.19,3.36,4.49,4.49,0,0,0,.89,2.74,5.75,5.75,0,0,0,2.48,1.88,9.33,9.33,0,0,0,3.61.66,9.08,9.08,0,0,0,6.95-2.82l2.88,3Zm-37.64-1.4a6.24,6.24,0,0,1-3-.73,5.22,5.22,0,0,1-2.11-2,6.18,6.18,0,0,1,0-5.94,5.07,5.07,0,0,1,2.11-2,6.35,6.35,0,0,1,3-.72,6.46,6.46,0,0,1,3.08.73,5.4,5.4,0,0,1,2.11,2,5.79,5.79,0,0,1,.75,3,5.85,5.85,0,0,1-.75,3,5.27,5.27,0,0,1-2.13,2,6.35,6.35,0,0,1-3.06.73m6-13.16v3a6.48,6.48,0,0,0-2.58-2.32,8,8,0,0,0-3.6-.8,8.45,8.45,0,0,0-4,1,7.15,7.15,0,0,0-2.8,2.68,7.43,7.43,0,0,0-1,3.92,7.54,7.54,0,0,0,1,3.93,7.14,7.14,0,0,0,2.82,2.71,8.34,8.34,0,0,0,4,1,8,8,0,0,0,3.52-.77,6.38,6.38,0,0,0,2.57-2.26v2a5.81,5.81,0,0,1-1.39,4.29,6,6,0,0,1-4.37,1.38,10.15,10.15,0,0,1-3.4-.56,8.11,8.11,0,0,1-2.75-1.57l-1.07,1.6a8.63,8.63,0,0,0,3.17,1.77,13.24,13.24,0,0,0,4.11.64c2.62,0,4.57-.64,5.87-1.92s1.94-3.24,1.94-5.9V386.64Zm-24.43-.12a7.61,7.61,0,0,0-3.55.79,5.93,5.93,0,0,0-2.39,2.21v-2.88h-2v15.63h2.11v-8.2a5.67,5.67,0,0,1,1.47-4.15,5.34,5.34,0,0,1,4-1.5A4.57,4.57,0,0,1,160,389.7a5.14,5.14,0,0,1,1.22,3.71v8.86h2.11v-9.06a6.68,6.68,0,0,0-1.74-5,6.39,6.39,0,0,0-4.68-1.71m-15.53,15.75h2.11V386.64h-2.11Zm-4.26-2.47a2.92,2.92,0,0,1-1,.59,3.89,3.89,0,0,1-1.27.21,2.63,2.63,0,0,1-2-.73,3,3,0,0,1-.7-2.12v-9.33h4.76v-1.78h-4.76v-3.41H130v3.41h-2.79v1.78H130v9.45a4.13,4.13,0,0,0,4.58,4.54,5.93,5.93,0,0,0,1.83-.28,3.91,3.91,0,0,0,1.46-.82Zm-19.08-13.28a7.62,7.62,0,0,0-3.56.79,5.86,5.86,0,0,0-2.39,2.21v-2.88h-2v15.63h2.11v-8.2a5.67,5.67,0,0,1,1.47-4.15,5.34,5.34,0,0,1,4-1.5,4.57,4.57,0,0,1,3.47,1.28,5.14,5.14,0,0,1,1.22,3.71v8.86h2.11v-9.06a6.68,6.68,0,0,0-1.74-5,6.36,6.36,0,0,0-4.67-1.71m-15.54,15.75h2.11V386.64h-2.11ZM93,389.7v-3.06H91v15.63h2.11v-8a6,6,0,0,1,1.4-4.24,5,5,0,0,1,3.86-1.52l.5,0v-2.05a7.55,7.55,0,0,0-3.63.8A5.18,5.18,0,0,0,93,389.7M78.86,400.54a5.86,5.86,0,0,1-3-.76,5.39,5.39,0,0,1-2.08-2.15,6.61,6.61,0,0,1-.75-3.18,6.5,6.5,0,0,1,.75-3.16,5.52,5.52,0,0,1,2.08-2.15,6.08,6.08,0,0,1,6,0,5.41,5.41,0,0,1,2.09,2.15,6.4,6.4,0,0,1,.76,3.16,6.5,6.5,0,0,1-.76,3.18,5.28,5.28,0,0,1-2.09,2.15,5.86,5.86,0,0,1-3,.76m.15-14a7.41,7.41,0,0,0-3.52.83A6.52,6.52,0,0,0,73,389.73v-3.09H71V408h2.11v-8.71a6.54,6.54,0,0,0,2.51,2.31,7.43,7.43,0,0,0,3.43.78,8,8,0,0,0,4-1,7.09,7.09,0,0,0,2.78-2.81,9,9,0,0,0,0-8.29,7.09,7.09,0,0,0-2.79-2.8,8,8,0,0,0-4-1" fill="#231f20"/><polygon points="258.07 185.73 187.31 221.11 187.31 79.61 258.07 44.23 328.83 79.61 328.83 221.11 258.07 185.73" fill="#fd0"/><polygon points="240.38 212.32 240.38 0 116.55 61.88 116.55 274.2 240.38 212.32" fill="#00aeef"/><polygon points="240.38 53.07 187.31 79.61 187.31 221.11 240.38 194.57 240.38 53.07" fill="#00a651"/><polygon points="293.45 150.33 222.69 114.95 151.93 150.33 151.93 238.78 222.69 274.16 293.45 238.78 293.45 150.33" fill="#ec008c"/><polygon points="187.31 132.64 187.31 221.11 258.07 185.73 293.45 203.42 293.45 150.33 222.69 114.95 187.31 132.64" fill="#ed1c24"/><polygon points="240.38 123.8 222.69 114.95 151.93 150.33 151.93 238.78 169.67 247.65 240.38 212.32 240.38 123.8" fill="#21409a"/><polygon points="222.69 114.95 187.31 132.64 187.31 221.11 240.38 194.57 240.38 123.8 222.69 114.95" fill="#0a0203"/></svg>